<?xml version="1.0" standalone="no"?>
<!DOCTYPE svg PUBLIC "-//W3C//DTD SVG 1.1//EN" "http://www.w3.org/Graphics/SVG/1.1/DTD/svg11.dtd" >
<svg xmlns="http://www.w3.org/2000/svg">
<metadata>
This is a custom SVG webfont generated by Font Squirrel.
</metadata>
<defs>
<font id="webfontU2B0mvrV" horiz-adv-x="556" >
<font-face units-per-em="1000" ascent="800" descent="-200" />
<missing-glyph horiz-adv-x="296" />
<glyph unicode=" "  horiz-adv-x="296" />
<glyph unicode="&#x09;" horiz-adv-x="296" />
<glyph unicode="&#xa0;" horiz-adv-x="296" />
<glyph unicode="!" horiz-adv-x="352" d="M247 669l-22 -391q-1 -20 -21 -20h-57q-20 0 -21 20l-22 391q-1 18 -1 20q0 13 18 13h107q20 0 20 -13q0 -2 -1 -20zM260 67q0 -34 -25 -59t-59 -25q-36 0 -60.5 25t-24.5 59q0 36 24.5 60.5t60.5 24.5q35 0 59.5 -25t24.5 -60z" />
<glyph unicode="&#x22;" horiz-adv-x="500" d="M405 694l-21 -229q-2 -20 -21 -20h-41q-19 0 -21 20l-21 229q-1 3 -1 10q0 13 20 13h87q20 0 20 -13q0 -7 -1 -10zM220 694l-21 -229q-2 -20 -21 -20h-41q-19 0 -21 20l-21 229q-1 3 -1 10q0 13 20 13h87q20 0 20 -13q0 -7 -1 -10z" />
<glyph unicode="#" d="M394 144l-18 -177q-2 -19 -24 -19h-47q-20 0 -20 13q0 1 1 4v5l18 174h-100l-17 -177q-2 -19 -25 -19h-45q-21 0 -21 13q0 1 1 4v5l17 174h-39q-13 0 -17 4t-4 17v55q0 20 21 20h49l17 167h-39q-13 0 -17 4t-4 17v54q0 14 4 17.5t17 3.5h49l17 163q2 19 24 19h45 q21 0 21 -13v-4q-1 -3 -1 -4l-16 -161h99l17 163q2 19 23 19h47q20 0 20 -12v-4q-1 -4 -1 -5l-16 -161h51q20 0 20 -21v-54q0 -21 -20 -21h-60l-18 -167h51q20 0 20 -20v-55q0 -13 -3.5 -17t-16.5 -4h-60zM313 240l18 167h-100l-17 -167h99z" />
<glyph unicode="$" d="M309 -11v-45q0 -20 -21 -20h-20q-21 0 -21 20v45q-37 0 -100 15q-74 18 -74 38q0 3 2 9l29 84q4 8 9 8q-2 0 47.5 -21t86.5 -25v196q-86 38 -111 58q-65 51 -65 136q0 96 71 150q51 39 105 41v49q0 20 21 20h20q21 0 21 -20v-49q38 -3 89 -17q68 -19 68 -41q0 -4 -3 -11 l-31 -68q-4 -8 -9 -8q2 0 -43 20t-71 20v-185q84 -41 112 -65q63 -55 63 -138q0 -93 -63 -146q-45 -39 -112 -50zM302 270v-173q67 18 67 82q0 56 -67 91zM254 410v163q-68 -17 -68 -78q0 -54 68 -85z" />
<glyph unicode="%" horiz-adv-x="833" d="M781 159q0 -80 -39.5 -128t-109.5 -48t-109.5 47.5t-39.5 128.5q0 80 39.5 128t109.5 48t109.5 -48t39.5 -128zM632 58q49 0 49 101t-49 101t-49 -101t49 -101zM348 492q0 -80 -39.5 -128t-109.5 -48t-109.5 47.5t-39.5 128.5q0 80 39.5 128t109.5 48t109.5 -48 t39.5 -128zM199 391q49 0 49 101t-49 101t-49 -101t49 -101zM586 659l-236 -659q-6 -17 -23 -17h-51q-21 0 -21 10q0 3 4 14l237 662q6 16 23 16h51q19 0 19 -12q0 -6 -3 -14z" />
<glyph unicode="&#x26;" horiz-adv-x="611" d="M341 362l107 -126q23 43 30 96q4 38 11 38q4 0 11 -2l73 -20q12 -3 12 -16q0 -41 -24 -105q-20 -53 -36 -78l71 -86q9 -11 9 -14q0 -6 -10 -15l-50 -45q-8 -6 -14 -6t-15 10l-56 64q-79 -74 -193 -74q-105 0 -166.5 50.5t-61.5 139.5q0 78 59 138q24 24 87 63l-53 60 q-39 52 -39 99q0 75 63 124q57 45 133 45q77 0 128 -43t51 -116q0 -59 -52 -116q-17 -18 -75 -65zM280 431q37 33 42 40q26 31 26 64q0 71 -65 71q-30 0 -50 -20t-20 -51t27 -63zM385 143l-136 160q-75 -54 -75 -115q0 -44 29.5 -72t71.5 -28q61 0 110 55z" />
<glyph unicode="'" horiz-adv-x="204" d="M164 694l-21 -229q-2 -20 -21 -20h-41q-19 0 -21 20l-21 229q-1 3 -1 10q0 13 20 13h87q20 0 20 -13q0 -7 -1 -10z" />
<glyph unicode="(" horiz-adv-x="444" d="M406 -213q0 -8 -30 -28t-41 -20q-14 0 -65 70q-60 84 -100 183q-52 130 -52 253t52 253q40 98 101 182q50 70 64 70q11 0 41 -20t30 -28q0 -5 -41 -68q-49 -75 -76 -150q-41 -113 -41 -239q0 -127 41 -240q27 -75 76 -150q41 -63 41 -68z" />
<glyph unicode=")" horiz-adv-x="444" d="M326 245q0 -123 -52 -253q-40 -99 -100 -183q-51 -70 -65 -70q-11 0 -41 20t-30 28q0 5 41 68q49 75 76 150q41 113 41 240q0 126 -41 239q-27 75 -76 150q-41 63 -41 68q0 8 30 28t41 20q14 0 64 -70q61 -84 101 -182q52 -130 52 -253z" />
<glyph unicode="*" d="M415 367l-52 -37q-11 -8 -15 -8q-7 0 -14 14l-57 112l-56 -112q-7 -14 -14 -14q-4 0 -15 8l-52 37q-11 8 -11 15q0 6 9 15l90 86l-123 19q-19 3 -19 12q0 4 3 13l20 61q5 16 13 16q5 0 14 -5l111 -59l-21 123q-1 6 -1 11q0 11 20 11h65q20 0 20 -11q0 -5 -1 -11l-21 -123 l111 59q9 5 14 5q8 0 13 -16l20 -61q3 -9 3 -13q0 -9 -19 -12l-123 -19l90 -86q9 -9 9 -15q0 -7 -11 -15z" />
<glyph unicode="+" d="M328 207v-160q0 -12 -4 -14.5t-13 -2.5h-66q-12 0 -14.5 4t-2.5 13v160h-160q-12 0 -14.5 4t-2.5 13v66q0 17 17 17h160v160q0 12 4 14.5t13 2.5h66q12 0 14.5 -4t2.5 -13v-160h160q12 0 14.5 -4t2.5 -13v-66q0 -12 -4 -14.5t-13 -2.5h-160z" />
<glyph unicode="," horiz-adv-x="296" d="M231 99l-119 -223q-7 -14 -14 -14q-3 0 -12 3l-38 13q-16 5 -16 13q0 3 3 13l62 204q5 17 22 17h97q20 0 20 -11q0 -7 -5 -15z" />
<glyph unicode="-" horiz-adv-x="370" d="M328 292v-73q0 -13 -3.5 -17t-17.5 -4h-244q-13 0 -17 4t-4 17v73q0 14 4 17.5t17 3.5h244q14 0 17.5 -3.5t3.5 -17.5z" />
<glyph unicode="." horiz-adv-x="296" d="M243 78q0 -40 -28 -67.5t-67 -27.5t-67 28t-28 67t28 67t67 28t67 -27.5t28 -67.5z" />
<glyph unicode="/" horiz-adv-x="444" d="M410 696l-325 -889q-7 -19 -27 -19h-58q-20 0 -20 12q0 7 3 15l326 891q7 18 27 18h59q18 0 18 -12q0 -8 -3 -16z" />
<glyph unicode="0" d="M278 91q110 0 110 243t-110 243t-110 -243t110 -243zM515 334q0 -171 -60.5 -261t-176.5 -90t-176.5 90t-60.5 261q0 351 237 351q115 0 176 -90t61 -261z" />
<glyph unicode="1" d="M456 79v-65q0 -14 -14 -14h-307q-14 0 -14 14v65q0 14 14 14h101v424l-76 -46q-10 -6 -14 -6q-6 0 -14 13l-26 45q-4 7 -4 13q0 7 12 16l159 116h70q20 0 20 -20v-555h79q14 0 14 -14z" />
<glyph unicode="2" d="M473 94v-73q0 -21 -20 -21h-361q-13 0 -13 17q0 78 8 112q4 17 23 58q25 53 93 108q102 82 106 85q50 51 50 110q0 87 -82 87q-41 0 -66 -27q-14 -15 -30 -49q-11 -27 -20 -27q-5 0 -11 3l-64 24q-11 4 -11 15q0 46 48 99q63 70 166 70q90 0 140 -49t50 -141 q0 -69 -30 -121q-24 -40 -73 -81l-86 -69q-43 -34 -58 -58q-11 -19 -14 -51h235q13 0 16.5 -4t3.5 -17z" />
<glyph unicode="3" d="M134 524l-55 49q-5 3 -5 10q0 23 46 58q57 44 133 44q87 0 141.5 -48.5t54.5 -128.5q0 -101 -94 -149q117 -42 117 -170q0 -94 -66 -150t-162 -56q-58 0 -124 19t-66 36q0 3 2 10l20 71q3 10 11 10q-2 0 48 -20.5t98 -20.5q109 0 109 108q0 100 -124 100h-31 q-20 0 -20 20v67q0 21 20 21h33q109 0 109 94q0 36 -23 59t-60 23q-38 0 -70 -30l-33 -31q-3 0 -9 5z" />
<glyph unicode="4" d="M437 132v-129q0 -20 -20 -20h-87q-20 0 -20 20v129h-244q-21 0 -21 20v105l249 415q8 13 13 13q4 0 14 -4l60 -25q15 -6 15 -14q0 -4 -6 -14l-233 -396h153l16 161q2 20 21 20h69q13 0 16.5 -4t3.5 -17l1 -160h56q14 0 17.5 -3.5t3.5 -20.5v-56q0 -20 -21 -20h-56z" />
<glyph unicode="5" d="M218 563l-17 -159q47 30 102 30q88 0 141 -61q50 -58 50 -146q0 -108 -68 -175q-71 -69 -191 -69q-55 0 -108 13q-57 14 -57 32q0 2 1 6v5l14 73q2 9 9 9q-2 0 47.5 -15t88.5 -15q70 0 111 38q38 37 38 96q0 104 -101 104q-36 0 -62 -14q-17 -9 -32 -24.5t-19 -15.5 q-2 0 -11 3l-60 19q-16 5 -16 13q0 7 1 10l31 329q1 14 4.5 16.5t16.5 2.5h293q21 0 21 -20v-64q0 -13 -3.5 -17t-17.5 -4h-206z" />
<glyph unicode="6" d="M465 644l-21 -70q-3 -10 -10 -10q-1 0 -24.5 8t-44.5 8q-122 0 -167 -170l2 -2q47 59 118 59q77 0 126 -54q56 -63 56 -180q0 -116 -58 -183t-157 -67t-153 68q-61 75 -61 225q0 198 86 307q80 102 213 102q40 0 70 -11q27 -11 27 -21q0 -2 -2 -9zM289 91q91 0 91 137 q0 134 -89 134q-90 0 -90 -134q0 -137 88 -137z" />
<glyph unicode="7" d="M478 609l-223 -611q-5 -15 -14 -15q-6 0 -11 1l-83 16q-20 4 -20 13q0 6 3 13l212 527h-245q-13 0 -17 4t-4 17v74q0 20 21 20h361q20 0 20 -20v-39z" />
<glyph unicode="8" d="M516 177q0 -78 -58 -133q-66 -61 -178 -61q-103 0 -166 49q-67 51 -67 142q0 122 142 177q-117 54 -117 159q0 72 59 123.5t151 51.5q88 0 148 -49.5t60 -124.5q0 -96 -113 -157q139 -65 139 -177zM286 399q77 34 77 98q0 35 -22.5 59t-59.5 24q-36 0 -59 -24t-23 -58 q0 -64 87 -99zM281 88q47 0 77.5 26t30.5 66q0 52 -46 88q-20 16 -68 36q-101 -53 -101 -123q0 -44 30 -68.5t77 -24.5z" />
<glyph unicode="9" d="M95 24l21 70q3 10 10 10q1 0 24.5 -8t44.5 -8q122 0 167 170l-2 2q-47 -59 -118 -59q-77 0 -126 54q-56 63 -56 180q0 116 58 183t157 67t154 -68q60 -75 60 -225q0 -198 -86 -307q-80 -102 -213 -102q-40 0 -68.5 11t-28.5 21q0 2 2 9zM269 306q90 0 90 134 q0 137 -88 137q-91 0 -91 -137q0 -134 89 -134z" />
<glyph unicode=":" horiz-adv-x="296" d="M243 399q0 -40 -28 -67.5t-67 -27.5t-67 28t-28 67t28 67t67 28t67 -27.5t28 -67.5zM243 78q0 -40 -28 -67.5t-67 -27.5t-67 28t-28 67t28 67t67 28t67 -27.5t28 -67.5z" />
<glyph unicode=";" horiz-adv-x="296" d="M243 399q0 -40 -28 -67.5t-67 -27.5t-67 28t-28 67t28 67t67 28t67 -27.5t28 -67.5zM231 99l-119 -223q-7 -14 -14 -14q-3 0 -12 3l-38 13q-16 5 -16 13q0 3 3 13l62 204q5 17 22 17h97q20 0 20 -11q0 -7 -5 -15z" />
<glyph unicode="&#x3c;" d="M199 257l296 -94q8 -3 8 -12q0 -6 -1 -8l-17 -60q-3 -11 -9 -11q-2 0 -8 2l-407 136q-11 4 -11 15v63q0 14 11 18l407 135q9 2 8 2q6 0 9 -10l17 -60q1 -5 1 -8q0 -9 -8 -12l-296 -94v-2z" />
<glyph unicode="=" d="M505 369v-66q0 -12 -4 -14.5t-13 -2.5h-420q-12 0 -14.5 4t-2.5 13v66q0 17 17 17h420q12 0 14.5 -4t2.5 -13zM505 210v-66q0 -12 -4 -14.5t-13 -2.5h-420q-12 0 -14.5 4t-2.5 13v66q0 17 17 17h420q12 0 14.5 -4t2.5 -13z" />
<glyph unicode="&#x3e;" d="M355 259l-296 94q-8 3 -8 12q0 3 1 8l17 60q3 10 9 10q-2 0 8 -2l407 -135q11 -4 11 -18v-63q0 -11 -11 -15l-407 -135q-4 -2 -8 -2q-6 0 -9 10l-17 60v4q-1 2 -1 4q0 9 8 12l296 94v2z" />
<glyph unicode="?" horiz-adv-x="444" d="M242 332v-68q0 -13 -3.5 -17t-17.5 -4h-73q-13 0 -17 4t-4 17v125q0 15 23 23l48 17q71 25 71 87q0 71 -83 71q-37 0 -81.5 -16.5t-43.5 -16.5q-8 0 -12 10l-25 68q-2 5 -2 11q0 19 68 39q65 20 118 20q90 0 143 -52t53 -135q0 -84 -59 -132q-33 -27 -103 -51zM272 67 q0 -34 -25 -59t-59 -25q-36 0 -60.5 25t-24.5 59q0 36 24.5 60.5t60.5 24.5q35 0 59.5 -25t24.5 -60z" />
<glyph unicode="@" horiz-adv-x="1000" d="M801 -30l16 -41l3 -12q0 -20 -98 -51q-113 -36 -236 -36q-192 0 -296 95.5t-104 269.5q0 202 140 339q138 134 338 134q164 0 259 -85q92 -82 92 -220q0 -140 -89 -228q-80 -80 -189 -80q-77 0 -92 69q-51 -69 -117 -69q-93 0 -93 122q0 104 54 182t128 78q44 0 78 -34 l5 11q5 10 16 10h66q12 0 12 -10v-5q-1 -4 -1 -5l-45 -213q-3 -14 -3 -26q0 -28 35 -28q54 0 97 56q48 64 48 165q0 105 -67 168q-72 67 -199 67q-168 0 -275.5 -114t-107.5 -287q0 -137 80.5 -212t226.5 -75q85 0 161 19q51 13 102 35q42 19 45 19q6 0 10 -8zM549 228 l24 112q-22 22 -48 22q-38 0 -62 -67q-20 -57 -20 -121q0 -37 27 -37q60 0 79 91z" />
<glyph unicode="A" horiz-adv-x="630" d="M615 75v-54q0 -21 -21 -21h-208q-21 0 -21 21v54q0 21 21 21h32l-23 87h-172l-22 -87h33q21 0 21 -21v-54q0 -21 -21 -21h-198q-21 0 -21 21v54q0 21 21 21h30l175 573q3 11 6.5 13.5t15.5 2.5h104q17 0 22 -16l171 -573h34q21 0 21 -21zM370 273l-41 172q-11 45 -22 140 h-2q-8 -80 -23 -140l-44 -172h132z" />
<glyph unicode="B" horiz-adv-x="593" d="M247 402h31q109 0 109 94q0 84 -98 84h-42v-178zM247 105h36q61 0 89 17q38 22 38 80q0 57 -37 79q-28 16 -88 16h-38v-192zM61 685h228q100 0 153 -27q80 -41 80 -148q0 -65 -37 -106q-20 -23 -65 -45q125 -35 125 -165q0 -114 -76 -160q-57 -34 -172 -34h-236 q-13 0 -17 4t-4 17v54q0 21 21 21h51v493h-51q-21 0 -21 21v54q0 21 21 21z" />
<glyph unicode="C" horiz-adv-x="519" d="M484 186v-145q0 -23 -54.5 -40.5t-119.5 -17.5q-271 0 -271 354q0 175 68 270t201 95q57 0 110 -19q58 -21 58 -47v-134q0 -17 -17 -17h-74q-12 0 -14.5 4t-2.5 13v83q-25 9 -53 9q-71 0 -102.5 -52t-31.5 -179q0 -141 26 -200q32 -72 116 -72q30 0 53 5v90q0 17 17 17 h74q17 0 17 -17z" />
<glyph unicode="D" horiz-adv-x="611" d="M52 685h229q153 0 217 -66q74 -75 74 -273q0 -201 -80 -281q-66 -65 -214 -65h-227q-13 0 -17 4t-4 17v54q0 21 21 21h51v493h-51q-21 0 -21 21v54q0 21 22 21zM237 108h38q87 0 120 48q35 52 35 192q0 132 -35 182q-34 47 -120 47h-38v-469z" />
<glyph unicode="E" horiz-adv-x="537" d="M481 178v-157q0 -21 -20 -21h-401q-21 0 -21 21v54q0 21 21 21h51v493h-51q-21 0 -21 21v54q0 21 21 21h400q21 0 21 -17v-152q0 -21 -21 -21h-66q-21 0 -21 21v61h-127v-165h170q14 0 17.5 -3.5t3.5 -17.5v-66q0 -21 -21 -21h-170v-196h127v70q0 13 3.5 17t17.5 4h66 q14 0 17.5 -3.5t3.5 -17.5z" />
<glyph unicode="F" horiz-adv-x="500" d="M333 75v-54q0 -21 -21 -21h-252q-21 0 -21 21v54q0 21 21 21h51v493h-51q-21 0 -21 21v54q0 21 21 21h400q21 0 21 -17v-152q0 -21 -21 -21h-66q-21 0 -21 21v61h-127v-165h170q14 0 17.5 -3.5t3.5 -17.5v-66q0 -21 -21 -21h-170v-208h66q21 0 21 -21z" />
<glyph unicode="G" horiz-adv-x="611" d="M516 264v-203q0 -30 -69 -55q-65 -23 -131 -23q-268 0 -268 356q0 363 268 363q64 0 121 -19q64 -21 64 -50v-129q0 -12 -4 -14.5t-13 -2.5h-74q-17 0 -17 17v76q-44 14 -68 14q-135 0 -135 -248q0 -127 27 -186q31 -69 107 -69q36 0 72 16v157h-75q-21 0 -21 21v54 q0 21 21 21h244q21 0 21 -21v-54q0 -21 -21 -21h-49z" />
<glyph unicode="H" horiz-adv-x="685" d="M645 75v-54q0 -21 -21 -21h-234q-21 0 -21 21v54q0 21 21 21h48v204h-191v-204h48q21 0 21 -21v-54q0 -21 -21 -21h-234q-21 0 -21 21v54q0 21 21 21h51v493h-51q-21 0 -21 21v54q0 21 21 21h234q21 0 21 -21v-54q0 -21 -21 -21h-48v-181h191v181h-48q-21 0 -21 21v54 q0 21 21 21h234q21 0 21 -21v-54q0 -21 -21 -21h-51v-493h51q21 0 21 -21z" />
<glyph unicode="I" horiz-adv-x="370" d="M324 75v-54q0 -21 -21 -21h-237q-21 0 -21 21v54q0 21 21 21h51v493h-51q-21 0 -21 21v54q0 21 21 21h237q21 0 21 -21v-54q0 -21 -21 -21h-51v-493h51q21 0 21 -21z" />
<glyph unicode="J" horiz-adv-x="463" d="M387 664v-453q0 -106 -36 -160q-46 -68 -156 -68q-180 0 -180 206q0 13 9 13h99q12 0 12 -14q0 -41 5 -57q13 -40 56 -40q38 0 49 29q7 18 7 72v397h-137q-21 0 -21 21v54q0 21 21 21h251q21 0 21 -21z" />
<glyph unicode="K" horiz-adv-x="630" d="M621 75v-54q0 -21 -21 -21h-109q-14 0 -25 15l-218 287h-2v-206h48q21 0 21 -21v-54q0 -21 -21 -21h-234q-21 0 -21 21v54q0 21 21 21h51v493h-51q-21 0 -21 21v54q0 21 21 21h234q21 0 21 -21v-54q0 -21 -21 -21h-48v-205h2l212 291q7 10 21 10h107q21 0 21 -21v-54 q0 -21 -21 -21h-43l-181 -238l206 -255h30q21 0 21 -21z" />
<glyph unicode="L" horiz-adv-x="537" d="M111 96v493h-51q-21 0 -21 21v54q0 21 21 21h240q21 0 21 -21v-54q0 -21 -21 -21h-54v-481h146l18 77q4 18 12 18q1 0 15 -3l66 -14q18 -4 18 -13q0 -4 -2 -13l-32 -142q-4 -18 -22 -18h-405q-21 0 -21 21v54q0 21 21 21h51z" />
<glyph unicode="M" horiz-adv-x="759" d="M720 75v-54q0 -21 -21 -21h-205q-21 0 -21 21v54q0 21 21 21h44l-7 264q-2 75 -2 160h-2q-15 -89 -35 -157l-58 -195q-5 -17 -22 -17h-66q-17 0 -22 17l-58 195q-20 68 -35 157h-2q0 -85 -2 -160l-7 -264h44q21 0 21 -21v-54q0 -21 -21 -21h-205q-21 0 -21 21v54 q0 21 21 21h46l21 493h-48q-21 0 -21 21v54q0 21 21 21h169q17 0 22 -16l81 -252q18 -57 28 -120h2q10 63 28 120l81 252q5 16 22 16h169q21 0 21 -21v-54q0 -21 -21 -21h-48l21 -493h46q21 0 21 -21z" />
<glyph unicode="N" horiz-adv-x="667" d="M577 589v-568q0 -13 -3.5 -17t-17.5 -4h-66q-15 0 -23 14l-184 341q-36 66 -59 136h-2q0 -15 2.5 -50t2.5 -60v-285h50q21 0 21 -21v-54q0 -21 -21 -21h-216q-21 0 -21 21v54q0 21 21 21h51v493h-51q-21 0 -21 21v54q0 21 21 21h154q16 0 23 -13l166 -310q39 -72 60 -145 h2q0 16 -2 65t-2 65v242h-50q-21 0 -21 21v54q0 21 21 21h216q21 0 21 -21v-54q0 -21 -21 -21h-51z" />
<glyph unicode="O" horiz-adv-x="593" d="M545 342q0 -178 -65 -268.5t-184 -90.5t-184 90.5t-65 268.5q0 179 67 271q64 89 182 89t182 -89q67 -93 67 -271zM296 88q107 0 107 254q0 255 -107 255t-107 -255q0 -254 107 -254z" />
<glyph unicode="P" d="M247 379h31q55 0 80 18q35 25 35 93q0 58 -33 78q-21 12 -72 12h-41v-201zM334 75v-54q0 -21 -21 -21h-252q-21 0 -21 21v54q0 21 21 21h51v493h-51q-21 0 -21 21v54q0 21 21 21h234q99 0 147 -23q86 -43 86 -165q0 -114 -75 -173q-62 -50 -153 -50h-53v-178h66 q21 0 21 -21z" />
<glyph unicode="Q" horiz-adv-x="593" d="M570 -26l-77 -55q-4 -2 -9 -2q-29 0 -103 80q-34 -14 -85 -14q-119 0 -184 90.5t-65 268.5q0 179 67 271q64 89 182 89t182 -89q67 -93 67 -271q0 -195 -73 -278l60 -45q42 -31 42 -38q0 -3 -4 -7zM296 88q107 0 107 254q0 255 -107 255t-107 -255q0 -254 107 -254z" />
<glyph unicode="R" horiz-adv-x="611" d="M248 388h26q61 0 87 18q33 23 33 84q0 58 -35 78q-22 12 -74 12h-37v-192zM603 75v-54q0 -21 -21 -21h-128q-16 0 -23 14l-135 269h-48v-187h47q21 0 21 -21v-54q0 -21 -21 -21h-233q-21 0 -21 21v54q0 21 21 21h51v493h-51q-21 0 -21 21v54q0 21 21 21h234q94 0 145 -26 q88 -45 88 -167q0 -84 -43 -134q-23 -26 -71 -51l121 -211h46q21 0 21 -21z" />
<glyph unicode="S" horiz-adv-x="500" d="M339 501v80q-36 13 -67 13q-94 0 -94 -78q0 -34 34 -59q19 -15 79.5 -44t91.5 -52q86 -64 86 -167q0 -95 -60.5 -153t-155.5 -58q-67 0 -131 18q-75 20 -75 50v151q0 17 17 17h74q12 0 14.5 -4t2.5 -13v-91q60 -20 94 -20q90 0 90 92q0 55 -64 90l-140 70q-87 53 -87 155 t67 156q58 48 153 48q59 0 116 -18q63 -20 63 -48v-135q0 -17 -17 -17h-74q-12 0 -14.5 4t-2.5 13z" />
<glyph unicode="T" horiz-adv-x="519" d="M417 75v-54q0 -21 -21 -21h-267q-21 0 -21 21v54q0 21 21 21h66v481h-73v-96q0 -17 -17 -17h-59q-12 0 -14.5 4t-2.5 13v187q0 12 4 14.5t13 2.5h433q17 0 17 -17v-187q0 -17 -17 -17h-59q-12 0 -14.5 4t-2.5 13v96h-73v-481h66q21 0 21 -21z" />
<glyph unicode="U" horiz-adv-x="685" d="M584 589v-357q0 -121 -50 -180q-57 -69 -191 -69t-191 69q-50 59 -50 180v357h-51q-21 0 -21 21v54q0 21 21 21h236q21 0 21 -21v-54q0 -21 -21 -21h-50v-357q0 -69 15 -97q23 -44 91 -44t91 44q15 28 15 97v357h-50q-21 0 -21 21v54q0 21 21 21h236q21 0 21 -21v-54 q0 -21 -21 -21h-51z" />
<glyph unicode="V" horiz-adv-x="611" d="M547 589l-165 -589q-5 -17 -22 -17h-114q-17 0 -22 17l-160 589h-39q-12 0 -14.5 4t-2.5 13v62q0 12 4 14.5t13 2.5h146q15 0 18 -14l88 -399q12 -56 25 -153h2q9 66 30 153l98 399q3 14 18 14h136q12 0 14.5 -4t2.5 -13v-62q0 -12 -4 -14.5t-13 -2.5h-39z" />
<glyph unicode="W" horiz-adv-x="852" d="M781 589l-134 -588q-4 -18 -22 -18h-86q-12 0 -16 3t-6 15l-66 344q-16 85 -23 173h-2q-7 -98 -25 -173l-81 -344q-3 -12 -6.5 -15t-15.5 -3h-86q-18 0 -22 18l-119 588h-37q-12 0 -14.5 4t-2.5 13v62q0 17 17 17h131q15 0 18 -15l60 -320q12 -66 22 -189h2q9 89 32 189 l71 314q3 13 7.5 17t24.5 4h67q14 0 16.5 -3.5t5.5 -17.5l70 -314q15 -69 28 -189h2q9 114 23 189l60 320q3 15 18 15h126q17 0 17 -17v-62q0 -12 -4 -14.5t-13 -2.5h-37z" />
<glyph unicode="X" horiz-adv-x="611" d="M597 79v-62q0 -12 -4 -14.5t-13 -2.5h-135q-15 0 -23 14l-89 166q-20 37 -28 70h-2q-6 -28 -28 -70l-89 -166q-8 -14 -23 -14h-135q-12 0 -14.5 4t-2.5 13v62q0 12 4 14.5t13 2.5h53l152 267l-134 226h-55q-12 0 -14.5 4t-2.5 13v62q0 12 4 14.5t13 2.5h138q15 0 22 -14 l71 -137q8 -15 28 -78h2q15 52 28 78l71 137q7 14 22 14h138q12 0 14.5 -4t2.5 -13v-62q0 -12 -4 -14.5t-13 -2.5h-55l-134 -226l152 -267h53q12 0 14.5 -4t2.5 -13z" />
<glyph unicode="Y" d="M439 75v-54q0 -21 -21 -21h-271q-21 0 -21 21v54q0 21 21 21h68v185l-159 308h-26q-12 0 -14.5 4t-2.5 13v62q0 12 4 14.5t13 2.5h114q15 0 22 -14l78 -161q30 -61 40 -114h2q16 65 40 114l78 161q7 14 22 14h109q12 0 14.5 -4t2.5 -13v-62q0 -12 -4 -14.5t-13 -2.5h-32 l-153 -308v-185h68q21 0 21 -21z" />
<glyph unicode="Z" horiz-adv-x="519" d="M492 161l-32 -143q-3 -13 -6 -15.5t-16 -2.5h-377q-12 0 -14.5 4t-2.5 13v83l279 477h-161v-80q0 -17 -17 -17h-74q-17 0 -17 17v171q0 17 17 17h370q21 0 21 -20v-90l-275 -467h179l18 80q3 15 12 15q4 -1 11 -2l73 -16q14 -3 14 -12q0 -2 -1 -6t-1 -6z" />
<glyph unicode="[" horiz-adv-x="444" d="M387 -118v-63q0 -14 -3.5 -17.5t-17.5 -3.5h-195q-13 0 -17 3.5t-4 17.5v877q0 14 4 17.5t17 3.5h195q14 0 17.5 -3.5t3.5 -17.5v-63q0 -13 -3.5 -17t-17.5 -4h-89v-709h89q14 0 17.5 -4t3.5 -17z" />
<glyph unicode="\" horiz-adv-x="444" d="M143 706l326 -891q3 -8 3 -15q0 -12 -20 -12h-58q-20 0 -27 19l-325 889q-3 8 -3 16q0 12 18 12h59q20 0 27 -18z" />
<glyph unicode="]" horiz-adv-x="444" d="M294 696v-877q0 -14 -3.5 -17.5t-17.5 -3.5h-195q-13 0 -17 3.5t-4 17.5v63q0 13 4 17t17 4h89v709h-89q-13 0 -17 4t-4 17v63q0 14 4 17.5t17 3.5h195q14 0 17.5 -3.5t3.5 -17.5z" />
<glyph unicode="^" d="M453 336l-60 -13q-3 -1 -8 -1q-10 0 -13 7l-94 237l-94 -237q-3 -7 -13 -7q-5 0 -8 1l-60 13q-10 2 -10 9l5 12l131 319q4 9 16 9h66q12 0 16 -9l131 -319l5 -12q0 -7 -10 -9z" />
<glyph unicode="_" horiz-adv-x="500" d="M500 -75v-50h-500v50h500z" />
<glyph unicode="`" horiz-adv-x="335" d="M255 610l-16 -32q-7 -14 -13 -14q-4 0 -14 4l-176 70q-16 6 -16 13q0 4 5 14l31 61q7 14 14 14q4 0 14 -6l163 -96q13 -8 13 -14q0 -4 -5 -14z" />
<glyph unicode="a" horiz-adv-x="500" d="M421 350v-173q0 -44 10 -84h43q14 0 14 -14v-65q0 -14 -14 -14h-125q-16 0 -22 15q-3 5 -8 28q-60 -60 -129 -60t-109.5 41.5t-40.5 112.5q0 109 101 148q55 21 160 21v31q0 40 -14.5 57t-56.5 17q-33 0 -78 -15t-46 -15q-7 0 -10 10l-20 61q-3 9 -3 12q0 17 58.5 32 t117.5 15q172 0 172 -161zM301 114v110q-55 0 -80 -7q-61 -17 -61 -73q0 -29 19 -48.5t47 -19.5q37 0 75 38z" />
<glyph unicode="b" horiz-adv-x="537" d="M197 377v-273q29 -21 62 -21q109 0 109 171q0 157 -90 157q-35 0 -81 -34zM197 703v-236q65 44 123 44q175 0 175 -250q0 -129 -54 -203.5t-153 -74.5q-42 0 -71 16q-12 6 -36 28q-16 -44 -29 -44q-6 0 -14 2l-80 20q-10 2 -10 8q0 3 7 18t11 34.5t4 61.5v497h-50 q-14 0 -14 14v65q0 14 14 14h163q14 0 14 -14z" />
<glyph unicode="c" horiz-adv-x="426" d="M373 100l26 -66q3 -8 3 -10q0 -15 -46.5 -28t-93.5 -13q-106 0 -164 64.5t-58 189.5q0 128 62 201t174 73q42 0 80 -11q43 -13 43 -32v-135q0 -14 -14 -14h-72q-14 0 -14 14v74q-11 4 -24 4q-100 0 -100 -167q0 -85 23.5 -123t79.5 -38q30 0 59 11l29 11q4 0 7 -5z" />
<glyph unicode="d" d="M531 79v-65q0 -14 -14 -14h-134q-16 0 -20.5 12t-8.5 25q-68 -54 -141 -54q-84 0 -127.5 64t-43.5 180q0 284 192 284q53 0 102 -30v143h-51q-14 0 -14 14v65q0 14 14 14h164q14 0 14 -14v-526q0 -52 10 -84h44q14 0 14 -14zM336 118v273q-40 20 -77 20q-53 0 -73 -42 q-17 -36 -17 -125q0 -87 18 -124t66 -37t83 35z" />
<glyph unicode="e" horiz-adv-x="500" d="M442 213h-269q0 -125 110 -125q43 0 85 16l42 17q8 0 11 -8l25 -60q3 -7 3 -11q0 -20 -60 -39.5t-119 -19.5q-224 0 -224 259q0 120 59.5 194.5t159.5 74.5q200 0 200 -273q0 -25 -23 -25zM173 306h157q0 112 -72 112q-50 0 -71 -45q-9 -21 -14 -67z" />
<glyph unicode="f" horiz-adv-x="389" d="M340 72v-51q0 -21 -21 -21h-256q-21 0 -21 21v51q0 21 21 21h61v308h-71q-21 0 -21 21v51q0 21 21 21h71v41q0 189 160 189q38 0 78 -10q44 -12 44 -26q0 -1 -2 -9l-18 -70q-3 -10 -9 -10q-2 0 -25 8.5t-45 8.5q-37 0 -48 -22q-8 -16 -8 -59v-41h114q17 0 17 -10 q0 -2 -2 -10l-14 -59q-3 -14 -19 -14h-96v-308h68q21 0 21 -21z" />
<glyph unicode="g" horiz-adv-x="519" d="M454 343v-149q0 -34 2.5 -116t2.5 -109q0 -181 -193 -181q-59 0 -133 18.5t-74 34.5q0 7 4 20l19 61q3 10 11 10q-4 0 52 -19.5t110 -19.5q50 0 67 21q15 18 15 64q0 21 -1 44l-2 22q-57 -38 -121 -38q-83 0 -127 65t-44 179q0 121 50 191t139 70q46 0 79 -17 q13 -7 40 -30q4 12 13 27q13 20 22 20q5 0 10 -2l78 -29q9 -4 9 -9q0 2 -14 -39t-14 -89zM334 140v236q-39 30 -79 30q-86 0 -86 -152q0 -148 80 -148q47 0 85 34z" />
<glyph unicode="h" horiz-adv-x="593" d="M559 79v-65q0 -14 -14 -14h-164q-14 0 -14 14v308q0 84 -56 84q-40 0 -86 -42v-271h51q14 0 14 -14v-65q0 -14 -14 -14h-229q-14 0 -14 14v65q0 14 14 14h51v531h-50q-14 0 -14 14v65q0 14 14 14h163q14 0 14 -14v-249q70 57 139 57q130 0 130 -158v-260h51q14 0 14 -14z " />
<glyph unicode="i" horiz-adv-x="333" d="M313 79v-65q0 -14 -14 -14h-255q-14 0 -14 14v65q0 14 14 14h64v308h-65q-14 0 -14 14v65q0 14 14 14h178q14 0 14 -14v-387h64q14 0 14 -14zM253 642q0 -34 -24 -58.5t-58 -24.5t-58.5 24.5t-24.5 58.5t24 58t59 24q34 0 58 -24t24 -58z" />
<glyph unicode="j" horiz-adv-x="296" d="M229 480v-486q0 -118 -31 -168q-38 -61 -140 -61q-40 0 -75 8.5t-35 19.5q0 3 2 10l22 75q2 6 8 6l23 -7q23 -7 41 -7q38 0 50 36q8 25 8 90v405h-78q-14 0 -14 14v65q0 14 14 14h191q14 0 14 -14zM246 642q0 -34 -24 -58.5t-58 -24.5t-58.5 24.5t-24.5 58.5t24 58t59 24 q34 0 58 -24t24 -58z" />
<glyph unicode="k" horiz-adv-x="574" d="M556 79v-65q0 -14 -14 -14h-124q-12 0 -19 10l-172 234h-2v-151h51q14 0 14 -14v-65q0 -14 -14 -14h-229q-14 0 -14 14v65q0 14 14 14h51v531h-50q-14 0 -14 14v65q0 14 14 14h163q14 0 14 -14v-406l125 102v2h-41q-14 0 -14 14v65q0 14 14 14h221q14 0 14 -14v-65 q0 -14 -14 -14h-52l-141 -120l156 -188h49q14 0 14 -14z" />
<glyph unicode="l" horiz-adv-x="296" d="M72 176v448h-50q-14 0 -14 14v65q0 14 14 14h163q14 0 14 -14v-545q0 -31 4 -42q5 -18 24 -18q12 0 25 4.5t14 4.5q7 0 8 -6l20 -82q2 -4 2 -8q0 -10 -32.5 -19t-68.5 -9q-82 0 -108 62q-15 37 -15 131z" />
<glyph unicode="m" horiz-adv-x="833" d="M810 79v-65q0 -14 -14 -14h-164q-14 0 -14 14v308q0 84 -42 84t-86 -41v-272h51q14 0 14 -14v-65q0 -14 -14 -14h-164q-14 0 -14 14v308q0 84 -42 84t-86 -41v-272h51q14 0 14 -14v-65q0 -14 -14 -14h-229q-14 0 -14 14v65q0 14 14 14h51v223q0 50 -10 85h-48 q-14 0 -14 14v65q0 14 14 14h139q16 0 23 -18q2 -5 9 -34q38 33 58 44q44 25 95 25q34 0 63.5 -19.5t38.5 -49.5q38 33 58 44q43 25 95 25q116 0 116 -158v-260h51q14 0 14 -14z" />
<glyph unicode="n" horiz-adv-x="593" d="M569 79v-65q0 -14 -14 -14h-164q-14 0 -14 14v308q0 84 -56 84q-42 0 -86 -41v-272h51q14 0 14 -14v-65q0 -14 -14 -14h-229q-14 0 -14 14v65q0 14 14 14h51v223q0 50 -10 85h-48q-14 0 -14 14v65q0 14 14 14h139q15 0 21 -17.5t11 -34.5q38 33 58 44q44 25 95 25 q130 0 130 -158v-260h51q14 0 14 -14z" />
<glyph unicode="o" horiz-adv-x="519" d="M259 83q48 0 67 47q15 36 15 117q0 79 -15 117q-19 47 -67 47t-67 -47q-15 -38 -15 -117q0 -80 15 -117q19 -47 67 -47zM476 247q0 -121 -58 -192.5t-159 -71.5t-159 71.5t-58 192.5t58 192.5t159 71.5q100 0 158.5 -71.5t58.5 -192.5z" />
<glyph unicode="p" d="M290 -123v-65q0 -14 -14 -14h-229q-14 0 -14 14v65q0 14 14 14h51v423q0 76 -10 87h-47q-14 0 -14 14v65q0 14 14 14h139q14 0 19 -10q1 -1 8 -24q73 51 133 51q173 0 173 -255q0 -273 -184 -273q-54 0 -104 26v-118h51q14 0 14 -14zM225 373v-271q34 -19 73 -19 q51 0 70 40q18 36 18 128q0 81 -18 120.5t-63 39.5q-39 0 -80 -38z" />
<glyph unicode="q" horiz-adv-x="519" d="M523 -123v-65q0 -14 -14 -14h-229q-14 0 -14 14v65q0 14 14 14h51v118q-50 -26 -104 -26q-184 0 -184 273q0 255 173 255q76 0 133 -51q1 9 14 30t23 21l15 -3l74 -25q12 -4 12 -12q0 -2 -8 -19q-8 -20 -13 -46q-8 -38 -8 -92v-423h51q14 0 14 -14zM331 102v271 q-36 33 -80 33q-81 0 -81 -155q0 -92 18 -128q19 -40 70 -40q39 0 73 19z" />
<glyph unicode="r" horiz-adv-x="407" d="M309 79v-65q0 -14 -14 -14h-232q-14 0 -14 14v65q0 14 14 14h51v223q0 43 -10 85h-48q-14 0 -14 14v65q0 14 14 14h130q17 0 26 -22l11 -40q32 40 52 55q33 24 72 24q22 0 40 -6.5t18 -16.5q0 -6 -2 -10l-31 -84q-3 -9 -8 -9q-1 0 -17 5.5t-30 5.5q-31 0 -76 -48v-255h54 q14 0 14 -14z" />
<glyph unicode="s" horiz-adv-x="426" d="M267 362v50q-36 3 -38 3q-66 0 -66 -50q0 -32 54 -53q87 -33 107 -46q67 -44 67 -122q0 -70 -46.5 -115.5t-124.5 -45.5q-52 0 -111 17q-66 18 -66 41v109q0 14 14 14h68q14 0 14 -18v-49q39 -14 71 -14q61 0 61 50q0 34 -74 63q-93 37 -113 58q-36 38 -36 94 q0 70 49 116.5t128 46.5q47 0 89 -11q49 -13 49 -35v-103q0 -14 -13 -14h-69q-14 0 -14 14z" />
<glyph unicode="t" horiz-adv-x="370" d="M217 401v-242q0 -31 4 -42q7 -19 30 -19t49 9.5t30 9.5q7 0 8 -6l20 -82q2 -8 2 -9q0 -13 -45 -25t-96 -12q-86 0 -113 62q-16 37 -16 131v225h-71q-14 0 -14 14v65q0 14 14 14h71v126q0 16 16 18l88 12q1 0 5 1h8q10 0 10 -17v-140h114q18 0 18 -10q0 -2 -2 -10l-14 -59 q-3 -14 -19 -14h-97z" />
<glyph unicode="u" horiz-adv-x="574" d="M549 79v-65q0 -14 -14 -14h-133q-15 0 -21 15.5t-11 31.5q-42 -36 -51 -42q-39 -22 -102 -22q-130 0 -130 158v260h-51q-14 0 -14 14v65q0 14 14 14h164q14 0 14 -14v-308q0 -89 56 -89q42 0 86 41v277h-51q-14 0 -14 14v65q0 14 14 14h164q14 0 14 -14v-302 q0 -50 10 -85h42q14 0 14 -14z" />
<glyph unicode="v" horiz-adv-x="500" d="M451 401l-142 -405q-5 -13 -19 -13h-82q-15 0 -19 13l-140 405h-33q-14 0 -14 14v65q0 14 14 14h125q14 0 18 -14l62 -222q20 -72 32 -145h2q12 75 34 145l68 222q4 14 18 14h110q14 0 14 -14v-65q0 -14 -14 -14h-34z" />
<glyph unicode="w" horiz-adv-x="722" d="M663 401l-121 -404q-4 -14 -19 -14h-78q-15 0 -18 16l-49 262q-8 43 -13 112h-2q-3 -49 -18 -112l-60 -262q-4 -16 -18 -16h-78q-15 0 -19 14l-105 404h-32q-14 0 -14 14v65q0 14 14 14h120q15 0 18 -15l44 -212q12 -57 22 -169h2q2 73 19 156l46 224q2 11 5 13.5t14 2.5 h89q11 0 14 -2.5t5 -13.5l44 -224q17 -87 19 -156h2q5 61 22 169l49 212q3 15 18 15h110q14 0 14 -14v-65q0 -14 -14 -14h-32z" />
<glyph unicode="x" horiz-adv-x="519" d="M493 79v-65q0 -14 -14 -14h-101q-14 0 -22 12l-59 89q-14 23 -39 61l-39 -61l-59 -89q-8 -12 -22 -12h-101q-14 0 -14 14v65q0 14 14 14h38l109 156l-109 152h-34q-14 0 -14 14v65q0 14 14 14h98q14 0 22 -12l58 -84q16 -24 39 -62q17 30 39 62l58 84q8 12 22 12h98 q14 0 14 -14v-65q0 -14 -14 -14h-34l-109 -152l109 -156h38q14 0 14 -14z" />
<glyph unicode="y" horiz-adv-x="519" d="M466 401l-81 -297q-22 -83 -67 -222q-38 -94 -147 -94q-41 0 -88.5 16t-47.5 30q0 3 4 12l30 65q3 7 9 7q1 0 30 -12.5t55 -12.5q36 0 55 21q14 15 25 53l10 33h-42q-14 0 -18 13l-134 388h-32q-14 0 -14 14v65q0 14 14 14h126q14 0 18 -15l64 -238q22 -81 38 -173h2 q8 63 33 173l54 238q3 15 18 15h121q14 0 14 -14v-65q0 -14 -14 -14h-35z" />
<glyph unicode="z" horiz-adv-x="463" d="M439 115l-43 -102q-5 -13 -13 -13h-333q-10 0 -10 10v75l231 304h-110v-40q0 -13 -7 -13h-86q-7 0 -7 13v131q0 14 14 14h317q17 0 17 -10v-78l-226 -301h145l22 53q3 8 9 8q5 0 12 -3l62 -27q10 -4 10 -10q0 -2 -4 -11z" />
<glyph unicode="{" horiz-adv-x="444" d="M388 -117v-64q0 -21 -18 -21q-200 0 -200 184v149q0 72 -68 72h-18q-20 0 -20 21v66q0 21 20 21h18q68 0 68 72v150q0 184 200 184q18 0 18 -21v-64q0 -11 -3 -15.5t-29 -5t-39 -10.5q-20 -16 -20 -59v-164q0 -52 -19 -80q-15 -22 -54 -40q39 -19 54 -41q19 -28 19 -81 v-163q0 -44 22 -60q12 -9 41 -10q24 0 27 -8q1 -4 1 -12z" />
<glyph unicode="|" horiz-adv-x="400" d="M250 733v-966q0 -12 -4 -14.5t-13 -2.5h-66q-12 0 -14.5 4t-2.5 13v966q0 12 4 14.5t13 2.5h66q12 0 14.5 -4t2.5 -13z" />
<glyph unicode="}" horiz-adv-x="444" d="M274 131v-149q0 -184 -200 -184q-18 0 -18 21v64q0 11 3 15.5t29 5t39 10.5q20 16 20 59v163q0 53 19 81q15 22 54 41q-39 18 -54 40q-19 28 -19 80v164q0 44 -22 60q-12 9 -41 10q-24 0 -27 8q-1 4 -1 12v64q0 21 18 21q200 0 200 -184v-150q0 -72 68 -72h18 q20 0 20 -21v-66q0 -21 -20 -21h-18q-68 0 -68 -72z" />
<glyph unicode="~" d="M470 342h60q0 -68 -21 -116q-32 -71 -105 -71q-49 0 -120 41l-38 22q-79 46 -108 46q-31 0 -44 -33q-6 -16 -11 -61h-60q0 68 21 116q32 71 105 71q49 0 120 -41l38 -22q79 -46 108 -46q31 0 44 33q6 16 11 61z" />
<glyph unicode="&#xa1;" horiz-adv-x="352" d="M225 216l22 -391q1 -18 1 -20q0 -13 -20 -13h-107q-18 0 -18 13q0 2 1 20l22 391q1 20 21 20h57q20 0 21 -20zM260 426q0 -34 -25 -59t-59 -25q-36 0 -60.5 25t-24.5 59q0 36 24.5 60.5t60.5 24.5q35 0 59.5 -25t24.5 -60z" />
<glyph unicode="&#xa2;" d="M300 176v325q-74 -22 -74 -169q0 -136 74 -156zM360 71v-51q0 -20 -21 -20h-18q-21 0 -21 20v51q-80 6 -132 56q-69 67 -69 200q0 138 69 208q50 51 132 62v54q0 14 4 17.5t17 3.5h18q21 0 21 -21v-54q22 0 64 -13q49 -15 49 -30q0 -6 -3 -9l-38 -70q-2 -4 -5 -4t-28 15 t-39 15v-325q25 4 46 14l18 8q5 0 7 -5l28 -70q3 -8 3 -9q0 -16 -43 -30q-33 -11 -59 -13z" />
<glyph unicode="&#xa3;" d="M553 85l-17 -68q-4 -17 -23 -17h-435q-13 0 -17 4t-4 17v67q0 20 21 20h70q13 65 13 87q0 28 -14 101h-80q-20 0 -20 21v51q0 13 3.5 17t16.5 4h61q-13 56 -13 92q0 97 64 152q61 52 162 52q66 0 124 -22q54 -20 54 -39q0 -7 -2 -9l-33 -63q-5 -10 -13 -10q-2 0 -44.5 19 t-82.5 19q-49 0 -79 -27t-30 -80q0 -36 16 -84h137q20 0 20 -21v-51q0 -13 -3.5 -17t-16.5 -4h-121q14 -58 14 -101q0 -37 -9 -87h263q20 0 20 -11q0 -4 -2 -12z" />
<glyph unicode="&#xa4;" d="M72 108l-30 30l67 67q-47 51 -47 136q0 79 48 138l-70 70l32 31l69 -68q64 46 137 46q72 0 136 -46l69 68l32 -31l-70 -70q48 -49 48 -138q0 -83 -47 -136l67 -67l-30 -30l-66 66q-63 -47 -139 -47q-80 0 -140 47zM278 517q-72 0 -123.5 -52t-51.5 -124t51.5 -122.5 t123.5 -50.5q71 0 122.5 51t51.5 122q0 72 -51 124t-123 52z" />
<glyph unicode="&#xa5;" d="M429 75v-54q0 -21 -21 -21h-251q-21 0 -21 21v54q0 21 21 21h68v150h-174q-20 0 -20 20v12q0 20 20 20h163l-24 51h-138q-21 0 -21 20v12q0 20 21 20h112l-98 188h-26q-12 0 -14.5 4t-2.5 13v62q0 12 4 14.5t13 2.5h104q15 0 22 -14l78 -161q23 -47 38 -114h2 q13 65 37 114l78 161q7 14 22 14h104q12 0 14.5 -4t2.5 -13v-62q0 -12 -4 -14.5t-13 -2.5h-26l-102 -188h107q20 0 20 -20v-12q0 -20 -20 -20h-131l-24 -51h155q20 0 20 -20v-12q0 -20 -20 -20h-164v-150h68q21 0 21 -21z" />
<glyph unicode="&#xa6;" horiz-adv-x="400" d="M250 658v-316q0 -12 -4 -14.5t-13 -2.5h-66q-17 0 -17 17v316q0 17 17 17h66q17 0 17 -17zM250 158v-316q0 -12 -4 -14.5t-13 -2.5h-66q-17 0 -17 17v316q0 17 17 17h66q17 0 17 -17z" />
<glyph unicode="&#xa7;" d="M444 632l-29 -56q-4 -8 -11 -8q-2 0 -42 20.5t-74 20.5q-67 0 -67 -45q0 -25 58 -54q100 -49 124 -65q75 -50 75 -128q0 -94 -99 -145q80 -46 80 -125q0 -70 -55 -119t-133 -49q-63 0 -130 27q-62 25 -62 44q0 6 3 11l32 61q4 8 9 8q-2 0 50 -27.5t101 -27.5q58 0 58 53 q0 29 -33 51q-17 11 -76 37q-67 29 -99 59q-47 44 -47 108q0 99 104 146q-75 45 -75 117t56 116q52 40 127 40q58 0 111 -22q48 -21 48 -37q0 -5 -4 -11zM289 219q69 40 69 83q0 27 -31 50q-7 5 -54 31l-12 -7q-64 -37 -64 -77q0 -28 35 -51q12 -8 57 -29z" />
<glyph unicode="&#xa8;" horiz-adv-x="335" d="M149 652q0 -28 -20 -48.5t-49 -20.5q-28 0 -48.5 20.5t-20.5 48.5q0 29 20 49t49 20t49 -20t20 -49zM326 652q0 -28 -20 -48.5t-49 -20.5q-28 0 -48.5 20.5t-20.5 48.5q0 29 20 49t49 20t49 -20.5t20 -48.5z" />
<glyph unicode="&#xa9;" d="M362 437l21 1q-5 -40 -18 -60q-25 -37 -83 -37q-56 0 -92.5 38t-36.5 96q0 60 40 103q37 41 83 41q23 0 44 -8t27 -8q5 0 17 15h15v-102l-15 -3q-17 42 -25 55q-21 30 -50 30q-71 0 -71 -122q0 -112 74 -112q56 0 70 73zM275 252q-95 0 -164.5 65.5t-69.5 159.5 t69.5 159.5t164.5 65.5t164.5 -65.5t69.5 -159.5t-69.5 -159.5t-164.5 -65.5zM76 477q0 -79 58.5 -134.5t140.5 -55.5t140.5 55.5t58.5 134.5q0 80 -58.5 135t-140.5 55t-140.5 -55t-58.5 -135z" />
<glyph unicode="&#xaa;" horiz-adv-x="481" d="M404 397v-42q0 -14 -15 -14h-89q-18 0 -26 31q-39 -39 -83 -39q-47 0 -77 27.5t-30 74.5q0 113 181 117v17q0 27 -9.5 36.5t-37.5 9.5q-25 0 -55 -7.5t-33 -7.5q-4 0 -6 6l-14 41q-2 6 -2 7q0 11 39 21t82 10q126 0 126 -107v-117q0 -23 6 -50h28q15 0 15 -14zM265 417 v80q-91 0 -91 -56q0 -43 43 -43q26 0 48 19z" />
<glyph unicode="&#xab;" horiz-adv-x="593" d="M534 37l-50 -31q-12 -6 -14 -6q-5 0 -14 12l-169 224q-6 8 -6 14t6 14l169 219q8 11 14 11q2 0 14 -6l50 -31q13 -8 13 -15q0 -4 -7 -14l-124 -184l124 -178q6 -9 6 -14q0 -8 -12 -15zM299 37l-50 -31q-12 -6 -14 -6q-5 0 -14 12l-169 224q-6 8 -6 14t6 14l169 219 q8 11 14 11q2 0 14 -6l50 -31q13 -8 13 -15q0 -4 -7 -14l-124 -184l124 -178q6 -9 6 -14q0 -8 -12 -15z" />
<glyph unicode="&#xac;" d="M505 369v-225q0 -12 -4 -14.5t-13 -2.5h-66q-12 0 -14.5 4t-2.5 13v142h-338q-12 0 -14.5 4t-2.5 13v66q0 17 17 17h421q12 0 14.5 -4t2.5 -13z" />
<glyph unicode="&#xad;" d="M505 290v-66q0 -12 -4 -14.5t-13 -2.5h-420q-12 0 -14.5 4t-2.5 13v66q0 17 17 17h420q12 0 14.5 -4t2.5 -13z" />
<glyph unicode="&#x2212;" d="M505 290v-66q0 -12 -4 -14.5t-13 -2.5h-420q-12 0 -14.5 4t-2.5 13v66q0 17 17 17h420q12 0 14.5 -4t2.5 -13z" />
<glyph unicode="&#xae;" d="M280 252q-95 0 -164.5 65.5t-69.5 159.5t69.5 159.5t164.5 65.5t164.5 -65.5t69.5 -159.5t-69.5 -159.5t-164.5 -65.5zM81 477q0 -79 58.5 -134.5t140.5 -55.5t140.5 55.5t58.5 134.5t-58.5 134.5t-140.5 55.5t-140.5 -55.5t-58.5 -134.5zM164 353v19q24 2 30.5 8.5 t6.5 31.5v143q0 23 -6.5 28t-30.5 8v20h122q109 0 109 -65q0 -32 -26 -48q-13 -9 -47 -17q35 -21 48 -60q10 -32 20 -32q16 0 16 33h20q0 -28 -12 -47q-15 -22 -41 -22q-36 0 -49 32l-17 59q-9 31 -40 31h-11v-60q0 -28 5.5 -33.5t32.5 -9.5v-19h-130zM256 553v-57h21 q57 0 57 45q0 50 -43 50q-23 0 -30 -10q-5 -6 -5 -28z" />
<glyph unicode="&#xaf;" horiz-adv-x="335" d="M290 673v-42q0 -13 -3.5 -16.5t-16.5 -3.5h-205q-11 0 -15.5 3t-4.5 17v42q0 13 3.5 16.5t16.5 3.5h205q13 0 16.5 -3.5t3.5 -16.5z" />
<glyph unicode="&#x2c9;" horiz-adv-x="335" d="M290 673v-42q0 -13 -3.5 -16.5t-16.5 -3.5h-205q-11 0 -15.5 3t-4.5 17v42q0 13 3.5 16.5t16.5 3.5h205q13 0 16.5 -3.5t3.5 -16.5z" />
<glyph unicode="&#xb0;" d="M435 544q0 -65 -46.5 -111t-111.5 -46t-111 46t-46 111q0 66 46.5 112t110.5 46q66 0 112 -46t46 -112zM277 469q32 0 54 22t22 53q0 32 -22 54t-54 22q-31 0 -53 -22t-22 -54q0 -31 22 -53t53 -22z" />
<glyph unicode="&#xb1;" d="M505 23v-66q0 -12 -4 -14.5t-13 -2.5h-420q-12 0 -14.5 4t-2.5 13v66q0 17 17 17h420q12 0 14.5 -4t2.5 -13zM328 207v-114q0 -12 -4 -14.5t-13 -2.5h-66q-12 0 -14.5 4t-2.5 13v114h-160q-12 0 -14.5 4t-2.5 13v66q0 17 17 17h160v160q0 12 4 14.5t13 2.5h66 q12 0 14.5 -4t2.5 -13v-160h160q12 0 14.5 -4t2.5 -13v-66q0 -12 -4 -14.5t-13 -2.5h-160z" />
<glyph unicode="&#xb2;" horiz-adv-x="370" d="M312 324v-39q0 -18 -18 -18h-231q-14 0 -14 16q0 62 20 100q22 42 97 92q61 42 61 83q0 45 -46 45q-33 0 -50 -29.5t-24 -29.5q-6 0 -12 3l-38 13q-11 2 -11 13q0 30 33 63q42 42 109 42q59 0 94 -30t35 -87q0 -59 -41 -99q-1 -1 -84 -63q-41 -31 -43 -57h145 q18 0 18 -18z" />
<glyph unicode="&#xb3;" horiz-adv-x="370" d="M89 574l-34 29q-6 4 -6 10q0 16 32 38q39 27 89 27q57 0 94 -29.5t37 -79.5q0 -35 -15 -55q-6 -8 -35 -31q30 -17 41 -30q22 -26 22 -70q0 -58 -44 -92t-107 -34q-39 0 -81 12q-46 12 -46 26q0 1 3 11l12 40q3 10 11 10q2 0 33 -12t61 -12q68 0 68 55q0 53 -77 53h-19 q-9 0 -14 2.5t-5 14.5v40q0 18 19 18h20q63 0 63 48q0 40 -45 40q-25 0 -44.5 -17t-22.5 -17q-4 0 -10 5z" />
<glyph unicode="&#xb4;" horiz-adv-x="335" d="M299 638l-176 -70q-10 -4 -14 -4q-6 0 -13 14l-16 32q-5 10 -5 14q0 6 13 14l163 96q10 6 14 6q7 0 14 -14l31 -61q5 -10 5 -14q0 -7 -16 -13z" />
<glyph unicode="&#xb5;" horiz-adv-x="574" d="M299 -123v-65q0 -14 -14 -14h-234q-14 0 -14 14v65q0 14 14 14h51v510h-51q-14 0 -14 14v65q0 14 14 14h164q14 0 14 -14v-308q0 -89 56 -89q42 0 86 41v277h-51q-14 0 -14 14v65q0 14 14 14h164q14 0 14 -14v-302q0 -50 10 -85h42q14 0 14 -14v-65q0 -14 -14 -14h-133 q-15 0 -21 15.5t-11 31.5q-28 -35 -35 -41q-27 -23 -63 -23q-24 0 -58 17v-109h56q14 0 14 -14z" />
<glyph unicode="&#x3bc;" horiz-adv-x="574" d="M299 -123v-65q0 -14 -14 -14h-234q-14 0 -14 14v65q0 14 14 14h51v510h-51q-14 0 -14 14v65q0 14 14 14h164q14 0 14 -14v-308q0 -89 56 -89q42 0 86 41v277h-51q-14 0 -14 14v65q0 14 14 14h164q14 0 14 -14v-302q0 -50 10 -85h42q14 0 14 -14v-65q0 -14 -14 -14h-133 q-15 0 -21 15.5t-11 31.5q-28 -35 -35 -41q-27 -23 -63 -23q-24 0 -58 17v-109h56q14 0 14 -14z" />
<glyph unicode="&#xb6;" horiz-adv-x="704" d="M591 595v-761q0 -20 -20 -20h-60q-20 0 -20 20v761h-68v-761q0 -20 -20 -20h-60q-20 0 -20 20v327q-32 -8 -61 -8q-105 0 -161.5 70t-56.5 194q0 168 87 228q57 40 185 40h332q21 0 21 -20v-50q0 -20 -21 -20h-57zM323 251v344q-75 0 -106 -24q-46 -35 -46 -142 q0 -96 25 -138q26 -45 89 -45q16 0 38 5z" />
<glyph unicode="&#xb7;" d="M354 256q0 -31 -22.5 -53.5t-53.5 -22.5q-32 0 -54.5 22.5t-22.5 53.5q0 32 22.5 54.5t54.5 22.5q31 0 53.5 -22.5t22.5 -54.5z" />
<glyph unicode="&#x2219;" d="M354 256q0 -31 -22.5 -53.5t-53.5 -22.5q-32 0 -54.5 22.5t-22.5 53.5q0 32 22.5 54.5t54.5 22.5q31 0 53.5 -22.5t22.5 -54.5z" />
<glyph unicode="&#xb8;" horiz-adv-x="335" d="M192 0l-4 -52q25 0 45 -15q26 -20 26 -57q0 -40 -29 -64t-80 -24q-73 0 -73 18q0 2 2 12l7 34q2 8 6 8l14 -4q14 -3 28 -3q32 0 32 23t-43 23q-19 0 -19 11q0 -7 2 21l5 69h81z" />
<glyph unicode="&#xb9;" horiz-adv-x="370" d="M311 315v-30q0 -18 -19 -18h-188q-19 0 -19 18v30q0 12 7 15q4 2 12 2h56v231l-52 -26q-8 -4 -12 -4q-6 0 -13 11l-17 26q-5 8 -5 11q0 4 11 13l115 74h45q18 0 18 -17v-319h42q9 0 14 -2.5t5 -14.5z" />
<glyph unicode="&#xba;" horiz-adv-x="444" d="M371 509q0 -80 -39.5 -128t-109.5 -48t-109.5 47.5t-39.5 128.5q0 80 39.5 128t109.5 48t109.5 -48t39.5 -128zM222 408q49 0 49 101t-49 101t-49 -101t49 -101z" />
<glyph unicode="&#xbb;" horiz-adv-x="593" d="M306 236l-169 -224q-9 -12 -14 -12q-2 0 -14 6l-50 31q-12 7 -12 15q0 5 6 14l124 178l-124 184q-7 10 -7 14q0 7 13 15l50 31q12 6 14 6q6 0 14 -11l169 -219q6 -8 6 -14t-6 -14zM541 236l-169 -224q-9 -12 -14 -12q-2 0 -14 6l-50 31q-12 7 -12 15q0 5 6 14l124 178 l-124 184q-7 10 -7 14q0 7 13 15l50 31q12 6 14 6q6 0 14 -11l169 -219q6 -8 6 -14t-6 -14z" />
<glyph unicode="&#xbc;" horiz-adv-x="870" d="M299 315v-30q0 -18 -19 -18h-188q-19 0 -19 18v30q0 12 7 15q4 2 12 2h56v231l-52 -26q-8 -4 -12 -4q-6 0 -13 11l-17 26q-5 8 -5 11q0 4 11 13l115 74h45q18 0 18 -17v-319h42q9 0 14 -2.5t5 -14.5zM778 77v-69q0 -18 -18 -18h-53q-9 0 -14 2.5t-5 15.5v69h-151 q-19 0 -19 17v63l160 244q7 10 13 10q-1 0 11 -3l38 -14q14 -7 14 -13q0 -2 -5 -12l-144 -222h83l10 89q2 16 19 16h43q18 0 18 -18v-89h32q19 0 19 -18v-33q0 -17 -19 -17h-32zM616 659l-236 -659q-6 -17 -23 -17h-51q-21 0 -21 10q0 3 4 14l237 662q6 16 23 16h51 q19 0 19 -12q0 -6 -3 -14z" />
<glyph unicode="&#xbd;" horiz-adv-x="870" d="M802 57v-39q0 -18 -18 -18h-231q-14 0 -14 16q0 62 20 100q22 42 97 92q61 42 61 83q0 45 -46 45q-33 0 -50 -29.5t-24 -29.5q-6 0 -12 3l-38 13q-11 2 -11 13q0 30 33 63q42 42 109 42q59 0 94 -30t35 -87q0 -59 -41 -99q-1 -1 -84 -63q-41 -31 -43 -57h145q18 0 18 -18 zM291 315v-30q0 -18 -19 -18h-188q-19 0 -19 18v30q0 12 7 15q4 2 12 2h56v231l-52 -26q-8 -4 -12 -4q-6 0 -13 11l-17 26q-5 8 -5 11q0 4 11 13l115 74h45q18 0 18 -17v-319h42q9 0 14 -2.5t5 -14.5zM576 659l-236 -659q-6 -17 -23 -17h-51q-21 0 -21 10q0 3 4 14l237 662 q6 16 23 16h51q19 0 19 -12q0 -6 -3 -14z" />
<glyph unicode="&#xbe;" horiz-adv-x="870" d="M96 574l-34 29q-6 4 -6 10q0 16 32 38q39 27 89 27q57 0 94 -29.5t37 -79.5q0 -35 -15 -55q-6 -8 -35 -31q30 -17 41 -30q22 -26 22 -70q0 -58 -44 -92t-107 -34q-39 0 -81 12q-46 12 -46 26q0 1 3 11l12 40q3 10 11 10q2 0 33 -12t61 -12q68 0 68 55q0 53 -77 53h-19 q-9 0 -14 2.5t-5 14.5v40q0 18 19 18h20q63 0 63 48q0 40 -45 40q-25 0 -44.5 -17t-22.5 -17q-4 0 -10 5zM616 659l-236 -659q-6 -17 -23 -17h-51q-21 0 -21 10q0 3 4 14l237 662q6 16 23 16h51q19 0 19 -12q0 -6 -3 -14zM784 77v-69q0 -18 -18 -18h-53q-9 0 -14 2.5 t-5 15.5v69h-151q-19 0 -19 17v63l160 244q7 10 13 10q-1 0 11 -3l38 -14q14 -7 14 -13q0 -2 -5 -12l-144 -222h83l10 89q2 16 19 16h43q18 0 18 -18v-87h32q19 0 19 -18v-35q0 -17 -19 -17h-32z" />
<glyph unicode="&#xbf;" horiz-adv-x="444" d="M202 162v68q0 14 4 17.5t17 3.5h73q14 0 17.5 -3.5t3.5 -17.5v-125q0 -15 -22 -24l-49 -16q-71 -24 -71 -87q0 -71 83 -71q38 0 82.5 16.5t42.5 16.5q8 0 12 -10l25 -68q2 -5 2 -11q0 -19 -66.5 -39t-119.5 -20q-90 0 -143 52t-53 135q0 84 59 132q33 27 103 51zM341 427 q0 -36 -24.5 -60.5t-60.5 -24.5q-35 0 -59.5 25t-24.5 60q0 34 25 59t59 25q36 0 60.5 -25t24.5 -59z" />
<glyph unicode="&#xc0;" horiz-adv-x="630" d="M615 75v-54q0 -21 -21 -21h-208q-21 0 -21 21v54q0 21 21 21h32l-23 87h-172l-22 -87h33q21 0 21 -21v-54q0 -21 -21 -21h-198q-21 0 -21 21v54q0 21 21 21h30l175 573q3 11 6.5 13.5t15.5 2.5h104q17 0 22 -16l171 -573h34q21 0 21 -21zM370 273l-41 172q-11 45 -22 140 h-2q-8 -80 -23 -140l-44 -172h132zM403 801l-16 -32q-7 -14 -13 -14q-4 0 -14 4l-176 70q-16 6 -16 13q0 4 5 14l31 61q7 14 14 14q4 0 14 -6l163 -96q13 -8 13 -14q0 -4 -5 -14z" />
<glyph unicode="&#xc1;" horiz-adv-x="630" d="M615 75v-54q0 -21 -21 -21h-208q-21 0 -21 21v54q0 21 21 21h32l-23 87h-172l-22 -87h33q21 0 21 -21v-54q0 -21 -21 -21h-198q-21 0 -21 21v54q0 21 21 21h30l175 573q3 11 6.5 13.5t15.5 2.5h104q17 0 22 -16l171 -573h34q21 0 21 -21zM370 273l-41 172q-11 45 -22 140 h-2q-8 -80 -23 -140l-44 -172h132zM447 829l-176 -70q-10 -4 -14 -4q-6 0 -13 14l-16 32q-5 10 -5 14q0 6 13 14l163 96q10 6 14 6q7 0 14 -14l31 -61q5 -10 5 -14q0 -7 -16 -13z" />
<glyph unicode="&#xc2;" horiz-adv-x="630" d="M615 75v-54q0 -21 -21 -21h-208q-21 0 -21 21v54q0 21 21 21h32l-23 87h-172l-22 -87h33q21 0 21 -21v-54q0 -21 -21 -21h-198q-21 0 -21 21v54q0 21 21 21h30l175 573q3 11 6.5 13.5t15.5 2.5h104q17 0 22 -16l171 -573h34q21 0 21 -21zM370 273l-41 172q-11 45 -22 140 h-2q-8 -80 -23 -140l-44 -172h132zM449 800l-19 -32q-8 -13 -14 -13q-3 0 -14 6l-86 49l-86 -49q-11 -6 -14 -6q-6 0 -14 13l-19 32q-6 10 -6 14q0 5 12 14l113 89q10 8 14 8t14 -8l113 -89q12 -9 12 -14q0 -4 -6 -14z" />
<glyph unicode="&#xc3;" horiz-adv-x="630" d="M615 75v-54q0 -21 -21 -21h-208q-21 0 -21 21v54q0 21 21 21h32l-23 87h-172l-22 -87h33q21 0 21 -21v-54q0 -21 -21 -21h-198q-21 0 -21 21v54q0 21 21 21h30l175 573q3 11 6.5 13.5t15.5 2.5h104q17 0 22 -16l171 -573h34q21 0 21 -21zM370 273l-41 172q-11 45 -22 140 h-2q-8 -80 -23 -140l-44 -172h132zM416 906l47 -24q7 -5 7 -9q0 -15 -25 -49q-35 -45 -80 -45q-26 0 -55 17.5t-41 17.5q-17 0 -29.5 -18t-15.5 -18q-4 0 -9 3l-47 24q-7 4 -7 8q0 15 24 48q32 46 79 46q28 0 59.5 -17.5t42.5 -17.5q15 0 27 18t16 18q3 0 7 -2z" />
<glyph unicode="&#xc4;" horiz-adv-x="630" d="M615 75v-54q0 -21 -21 -21h-208q-21 0 -21 21v54q0 21 21 21h32l-23 87h-172l-22 -87h33q21 0 21 -21v-54q0 -21 -21 -21h-198q-21 0 -21 21v54q0 21 21 21h30l175 573q3 11 6.5 13.5t15.5 2.5h104q17 0 22 -16l171 -573h34q21 0 21 -21zM370 273l-41 172q-11 45 -22 140 h-2q-8 -80 -23 -140l-44 -172h132zM297 843q0 -28 -20 -48.5t-49 -20.5q-28 0 -48.5 20.5t-20.5 48.5q0 29 20 49t49 20t49 -20t20 -49zM474 843q0 -28 -20 -48.5t-49 -20.5q-28 0 -48.5 20.5t-20.5 48.5q0 29 20 49t49 20t49 -20.5t20 -48.5z" />
<glyph unicode="&#xc5;" horiz-adv-x="630" d="M615 75v-54q0 -21 -21 -21h-208q-21 0 -21 21v54q0 21 21 21h32l-23 87h-172l-22 -87h33q21 0 21 -21v-54q0 -21 -21 -21h-198q-21 0 -21 21v54q0 21 21 21h30l175 573q3 11 6.5 13.5t15.5 2.5h104q17 0 22 -16l171 -573h34q21 0 21 -21zM370 273l-41 172q-11 45 -22 140 h-2q-8 -80 -23 -140l-44 -172h132zM421 859q0 -43 -31 -73.5t-74 -30.5t-73.5 30.5t-30.5 73.5q0 44 30.5 74.5t73.5 30.5t74 -30.5t31 -74.5zM316 817q18 0 30.5 12t12.5 30t-12.5 30.5t-30.5 12.5q-17 0 -29.5 -12t-12.5 -31q0 -18 12.5 -30t29.5 -12z" />
<glyph unicode="&#xc6;" horiz-adv-x="815" d="M401 273v347h-2q-12 -38 -51 -142l-85 -205h138zM771 178v-157q0 -21 -20 -21h-401q-21 0 -21 21v54q0 21 21 21h51v87h-168l-32 -87h52q21 0 21 -21v-54q0 -21 -21 -21h-217q-21 0 -21 21v54q0 21 21 21h30l245 573q5 16 22 16h417q21 0 21 -17v-152q0 -21 -21 -21h-66 q-21 0 -21 21v61h-127v-165h170q14 0 17.5 -3.5t3.5 -17.5v-66q0 -21 -21 -21h-170v-196h127v70q0 13 3.5 17t17.5 4h66q14 0 17.5 -3.5t3.5 -17.5z" />
<glyph unicode="&#xc7;" horiz-adv-x="519" d="M330 -17l-3 -39q75 -9 75 -75q0 -40 -30.5 -65t-83.5 -25q-75 0 -75 19q0 5 1 9l9 40q3 4 5 4q-1 0 14 -3.5t30 -3.5q30 0 30 25q0 24 -40 24q-22 0 -22 11v1q1 1 1 6l8 79q-97 5 -152 94q-58 91 -58 253q0 175 68 270t201 95q57 0 110 -19q58 -21 58 -47v-134 q0 -17 -17 -17h-74q-12 0 -14.5 4t-2.5 13v83q-25 9 -53 9q-71 0 -102.5 -52t-31.5 -179q0 -141 26 -200q32 -72 116 -72q30 0 53 5v90q0 17 17 17h74q17 0 17 -17v-145q0 -21 -59 -40q-53 -18 -95 -18z" />
<glyph unicode="&#xc8;" horiz-adv-x="537" d="M481 178v-157q0 -21 -20 -21h-401q-21 0 -21 21v54q0 21 21 21h51v493h-51q-21 0 -21 21v54q0 21 21 21h400q21 0 21 -17v-152q0 -21 -21 -21h-66q-21 0 -21 21v61h-127v-165h170q14 0 17.5 -3.5t3.5 -17.5v-66q0 -21 -21 -21h-170v-196h127v70q0 13 3.5 17t17.5 4h66 q14 0 17.5 -3.5t3.5 -17.5zM356 801l-16 -32q-7 -14 -13 -14q-4 0 -14 4l-176 70q-16 6 -16 13q0 4 5 14l31 61q7 14 14 14q4 0 14 -6l163 -96q13 -8 13 -14q0 -4 -5 -14z" />
<glyph unicode="&#xc9;" horiz-adv-x="537" d="M481 178v-157q0 -21 -20 -21h-401q-21 0 -21 21v54q0 21 21 21h51v493h-51q-21 0 -21 21v54q0 21 21 21h400q21 0 21 -17v-152q0 -21 -21 -21h-66q-21 0 -21 21v61h-127v-165h170q14 0 17.5 -3.5t3.5 -17.5v-66q0 -21 -21 -21h-170v-196h127v70q0 13 3.5 17t17.5 4h66 q14 0 17.5 -3.5t3.5 -17.5zM400 829l-176 -70q-10 -4 -14 -4q-6 0 -13 14l-16 32q-5 10 -5 14q0 6 13 14l163 96q10 6 14 6q7 0 14 -14l31 -61q5 -10 5 -14q0 -7 -16 -13z" />
<glyph unicode="&#xca;" horiz-adv-x="537" d="M481 178v-157q0 -21 -20 -21h-401q-21 0 -21 21v54q0 21 21 21h51v493h-51q-21 0 -21 21v54q0 21 21 21h400q21 0 21 -17v-152q0 -21 -21 -21h-66q-21 0 -21 21v61h-127v-165h170q14 0 17.5 -3.5t3.5 -17.5v-66q0 -21 -21 -21h-170v-196h127v70q0 13 3.5 17t17.5 4h66 q14 0 17.5 -3.5t3.5 -17.5zM402 800l-19 -32q-8 -13 -14 -13q-3 0 -14 6l-86 49l-86 -49q-11 -6 -14 -6q-6 0 -14 13l-19 32q-6 10 -6 14q0 5 12 14l113 89q10 8 14 8t14 -8l113 -89q12 -9 12 -14q0 -4 -6 -14z" />
<glyph unicode="&#xcb;" horiz-adv-x="537" d="M481 178v-157q0 -21 -20 -21h-401q-21 0 -21 21v54q0 21 21 21h51v493h-51q-21 0 -21 21v54q0 21 21 21h400q21 0 21 -17v-152q0 -21 -21 -21h-66q-21 0 -21 21v61h-127v-165h170q14 0 17.5 -3.5t3.5 -17.5v-66q0 -21 -21 -21h-170v-196h127v70q0 13 3.5 17t17.5 4h66 q14 0 17.5 -3.5t3.5 -17.5zM250 843q0 -28 -20 -48.5t-49 -20.5q-28 0 -48.5 20.5t-20.5 48.5q0 29 20 49t49 20t49 -20t20 -49zM427 843q0 -28 -20 -48.5t-49 -20.5q-28 0 -48.5 20.5t-20.5 48.5q0 29 20 49t49 20t49 -20.5t20 -48.5z" />
<glyph unicode="&#xcc;" horiz-adv-x="370" d="M324 75v-54q0 -21 -21 -21h-237q-21 0 -21 21v54q0 21 21 21h51v493h-51q-21 0 -21 21v54q0 21 21 21h237q21 0 21 -21v-54q0 -21 -21 -21h-51v-493h51q21 0 21 -21zM273 801l-16 -32q-7 -14 -13 -14q-4 0 -14 4l-176 70q-16 6 -16 13q0 4 5 14l31 61q7 14 14 14 q4 0 14 -6l163 -96q13 -8 13 -14q0 -4 -5 -14z" />
<glyph unicode="&#xcd;" horiz-adv-x="370" d="M324 75v-54q0 -21 -21 -21h-237q-21 0 -21 21v54q0 21 21 21h51v493h-51q-21 0 -21 21v54q0 21 21 21h237q21 0 21 -21v-54q0 -21 -21 -21h-51v-493h51q21 0 21 -21zM317 829l-176 -70q-10 -4 -14 -4q-6 0 -13 14l-16 32q-5 10 -5 14q0 6 13 14l163 96q10 6 14 6 q7 0 14 -14l31 -61q5 -10 5 -14q0 -7 -16 -13z" />
<glyph unicode="&#xce;" horiz-adv-x="370" d="M324 75v-54q0 -21 -21 -21h-237q-21 0 -21 21v54q0 21 21 21h51v493h-51q-21 0 -21 21v54q0 21 21 21h237q21 0 21 -21v-54q0 -21 -21 -21h-51v-493h51q21 0 21 -21zM319 800l-19 -32q-8 -13 -14 -13q-3 0 -14 6l-86 49l-86 -49q-11 -6 -14 -6q-6 0 -14 13l-19 32 q-6 10 -6 14q0 5 12 14l113 89q10 8 14 8t14 -8l113 -89q12 -9 12 -14q0 -4 -6 -14z" />
<glyph unicode="&#xcf;" horiz-adv-x="370" d="M324 75v-54q0 -21 -21 -21h-237q-21 0 -21 21v54q0 21 21 21h51v493h-51q-21 0 -21 21v54q0 21 21 21h237q21 0 21 -21v-54q0 -21 -21 -21h-51v-493h51q21 0 21 -21zM167 843q0 -28 -20 -48.5t-49 -20.5q-28 0 -48.5 20.5t-20.5 48.5q0 29 20 49t49 20t49 -20t20 -49z M344 843q0 -28 -20 -48.5t-49 -20.5q-28 0 -48.5 20.5t-20.5 48.5q0 29 20 49t49 20t49 -20.5t20 -48.5z" />
<glyph unicode="&#xd0;" horiz-adv-x="611" d="M52 685h229q153 0 217 -66q74 -75 74 -273q0 -201 -80 -281q-66 -65 -214 -65h-227q-13 0 -17 4t-4 17v54q0 21 21 21h51v215h-49q-20 0 -20 20v50q0 11 3 15.5t17 4.5h49v188h-51q-21 0 -21 21v54q0 21 22 21zM237 108h38q87 0 120 48q35 52 35 192q0 132 -35 182 q-34 47 -120 47h-38v-176h103q13 0 16.5 -3.5t3.5 -16.5v-50q0 -13 -3 -16.5t-17 -3.5h-103v-203z" />
<glyph unicode="&#xd1;" horiz-adv-x="667" d="M577 589v-568q0 -13 -3.5 -17t-17.5 -4h-66q-15 0 -23 14l-184 341q-36 66 -59 136h-2q0 -15 2.5 -50t2.5 -60v-285h50q21 0 21 -21v-54q0 -21 -21 -21h-216q-21 0 -21 21v54q0 21 21 21h51v493h-51q-21 0 -21 21v54q0 21 21 21h154q16 0 23 -13l166 -310q39 -72 60 -145 h2q0 16 -2 65t-2 65v242h-50q-21 0 -21 21v54q0 21 21 21h216q21 0 21 -21v-54q0 -21 -21 -21h-51zM434 906l47 -24q7 -5 7 -9q0 -15 -25 -49q-35 -45 -80 -45q-26 0 -55 17.5t-41 17.5q-17 0 -29.5 -18t-15.5 -18q-4 0 -9 3l-47 24q-7 4 -7 8q0 15 24 48q32 46 79 46 q28 0 59.5 -17.5t42.5 -17.5q15 0 27 18t16 18q3 0 7 -2z" />
<glyph unicode="&#xd2;" horiz-adv-x="593" d="M545 342q0 -178 -65 -268.5t-184 -90.5t-184 90.5t-65 268.5q0 179 67 271q64 89 182 89t182 -89q67 -93 67 -271zM296 88q107 0 107 254q0 255 -107 255t-107 -255q0 -254 107 -254zM384 801l-16 -32q-7 -14 -13 -14q-4 0 -14 4l-176 70q-16 6 -16 13q0 4 5 14l31 61 q7 14 14 14q4 0 14 -6l163 -96q13 -8 13 -14q0 -4 -5 -14z" />
<glyph unicode="&#xd3;" horiz-adv-x="593" d="M545 342q0 -178 -65 -268.5t-184 -90.5t-184 90.5t-65 268.5q0 179 67 271q64 89 182 89t182 -89q67 -93 67 -271zM296 88q107 0 107 254q0 255 -107 255t-107 -255q0 -254 107 -254zM428 829l-176 -70q-10 -4 -14 -4q-6 0 -13 14l-16 32q-5 10 -5 14q0 6 13 14l163 96 q10 6 14 6q7 0 14 -14l31 -61q5 -10 5 -14q0 -7 -16 -13z" />
<glyph unicode="&#xd4;" horiz-adv-x="593" d="M545 342q0 -178 -65 -268.5t-184 -90.5t-184 90.5t-65 268.5q0 179 67 271q64 89 182 89t182 -89q67 -93 67 -271zM296 88q107 0 107 254q0 255 -107 255t-107 -255q0 -254 107 -254zM430 800l-19 -32q-8 -13 -14 -13q-3 0 -14 6l-86 49l-86 -49q-11 -6 -14 -6 q-6 0 -14 13l-19 32q-6 10 -6 14q0 5 12 14l113 89q10 8 14 8t14 -8l113 -89q12 -9 12 -14q0 -4 -6 -14z" />
<glyph unicode="&#xd5;" horiz-adv-x="593" d="M545 342q0 -178 -65 -268.5t-184 -90.5t-184 90.5t-65 268.5q0 179 67 271q64 89 182 89t182 -89q67 -93 67 -271zM296 88q107 0 107 254q0 255 -107 255t-107 -255q0 -254 107 -254zM397 906l47 -24q7 -5 7 -9q0 -15 -25 -49q-35 -45 -80 -45q-26 0 -55 17.5t-41 17.5 q-17 0 -29.5 -18t-15.5 -18q-4 0 -9 3l-47 24q-7 4 -7 8q0 15 24 48q32 46 79 46q28 0 59.5 -17.5t42.5 -17.5q15 0 27 18t16 18q3 0 7 -2z" />
<glyph unicode="&#xd6;" horiz-adv-x="593" d="M545 342q0 -178 -65 -268.5t-184 -90.5t-184 90.5t-65 268.5q0 179 67 271q64 89 182 89t182 -89q67 -93 67 -271zM296 88q107 0 107 254q0 255 -107 255t-107 -255q0 -254 107 -254zM278 843q0 -28 -20 -48.5t-49 -20.5q-28 0 -48.5 20.5t-20.5 48.5q0 29 20 49t49 20 t49 -20t20 -49zM455 843q0 -28 -20 -48.5t-49 -20.5q-28 0 -48.5 20.5t-20.5 48.5q0 29 20 49t49 20t49 -20.5t20 -48.5z" />
<glyph unicode="&#xd7;" d="M462 119l-47 -47q-8 -8 -12 -8q-6 0 -12 8l-113 115l-113 -115q-6 -8 -12 -8q-4 0 -12 8l-48 47q-7 5 -7 12q0 5 7 12l115 113l-115 113q-7 5 -7 12q0 5 7 12l48 48q7 7 11 7q6 0 13 -7l113 -115l113 115q7 7 12 7t12 -7l47 -47q8 -8 8 -12q0 -7 -8 -13l-114 -113 l114 -113q8 -8 8 -11q0 -5 -8 -13z" />
<glyph unicode="&#xd8;" horiz-adv-x="593" d="M518 697l-42 -83q69 -87 69 -272q0 -178 -65 -268.5t-184 -90.5q-83 0 -133 38l-42 -78q-7 -13 -14 -13q-4 0 -14 4l-31 16q-14 7 -14 14q0 5 5 14l54 102q-60 90 -60 262q0 179 67 271q64 89 182 89q67 0 122 -31l32 60q7 14 13 14q4 0 14 -5l32 -16q14 -7 14 -13 t-5 -14zM195 211l165 349q-26 37 -64 37q-107 0 -107 -255q0 -108 4 -131h2zM390 473l-163 -346q26 -39 69 -39q107 0 107 254q0 74 -11 131h-2z" />
<glyph unicode="&#xd9;" horiz-adv-x="685" d="M584 589v-357q0 -121 -50 -180q-57 -69 -191 -69t-191 69q-50 59 -50 180v357h-51q-21 0 -21 21v54q0 21 21 21h236q21 0 21 -21v-54q0 -21 -21 -21h-50v-357q0 -69 15 -97q23 -44 91 -44t91 44q15 28 15 97v357h-50q-21 0 -21 21v54q0 21 21 21h236q21 0 21 -21v-54 q0 -21 -21 -21h-51zM430 801l-16 -32q-7 -14 -13 -14q-4 0 -14 4l-176 70q-16 6 -16 13q0 4 5 14l31 61q7 14 14 14q4 0 14 -6l163 -96q13 -8 13 -14q0 -4 -5 -14z" />
<glyph unicode="&#xda;" horiz-adv-x="685" d="M584 589v-357q0 -121 -50 -180q-57 -69 -191 -69t-191 69q-50 59 -50 180v357h-51q-21 0 -21 21v54q0 21 21 21h236q21 0 21 -21v-54q0 -21 -21 -21h-50v-357q0 -69 15 -97q23 -44 91 -44t91 44q15 28 15 97v357h-50q-21 0 -21 21v54q0 21 21 21h236q21 0 21 -21v-54 q0 -21 -21 -21h-51zM474 829l-176 -70q-10 -4 -14 -4q-6 0 -13 14l-16 32q-5 10 -5 14q0 6 13 14l163 96q10 6 14 6q7 0 14 -14l31 -61q5 -10 5 -14q0 -7 -16 -13z" />
<glyph unicode="&#xdb;" horiz-adv-x="685" d="M584 589v-357q0 -121 -50 -180q-57 -69 -191 -69t-191 69q-50 59 -50 180v357h-51q-21 0 -21 21v54q0 21 21 21h236q21 0 21 -21v-54q0 -21 -21 -21h-50v-357q0 -69 15 -97q23 -44 91 -44t91 44q15 28 15 97v357h-50q-21 0 -21 21v54q0 21 21 21h236q21 0 21 -21v-54 q0 -21 -21 -21h-51zM476 800l-19 -32q-8 -13 -14 -13q-3 0 -14 6l-86 49l-86 -49q-11 -6 -14 -6q-6 0 -14 13l-19 32q-6 10 -6 14q0 5 12 14l113 89q10 8 14 8t14 -8l113 -89q12 -9 12 -14q0 -4 -6 -14z" />
<glyph unicode="&#xdc;" horiz-adv-x="685" d="M584 589v-357q0 -121 -50 -180q-57 -69 -191 -69t-191 69q-50 59 -50 180v357h-51q-21 0 -21 21v54q0 21 21 21h236q21 0 21 -21v-54q0 -21 -21 -21h-50v-357q0 -69 15 -97q23 -44 91 -44t91 44q15 28 15 97v357h-50q-21 0 -21 21v54q0 21 21 21h236q21 0 21 -21v-54 q0 -21 -21 -21h-51zM324 843q0 -28 -20 -48.5t-49 -20.5q-28 0 -48.5 20.5t-20.5 48.5q0 29 20 49t49 20t49 -20t20 -49zM501 843q0 -28 -20 -48.5t-49 -20.5q-28 0 -48.5 20.5t-20.5 48.5q0 29 20 49t49 20t49 -20.5t20 -48.5z" />
<glyph unicode="&#xdd;" d="M439 75v-54q0 -21 -21 -21h-271q-21 0 -21 21v54q0 21 21 21h68v185l-159 308h-26q-12 0 -14.5 4t-2.5 13v62q0 12 4 14.5t13 2.5h114q15 0 22 -14l78 -161q30 -61 40 -114h2q16 65 40 114l78 161q7 14 22 14h109q12 0 14.5 -4t2.5 -13v-62q0 -12 -4 -14.5t-13 -2.5h-32 l-153 -308v-185h68q21 0 21 -21zM410 829l-176 -70q-10 -4 -14 -4q-6 0 -13 14l-16 32q-5 10 -5 14q0 6 13 14l163 96q10 6 14 6q7 0 14 -14l31 -61q5 -10 5 -14q0 -7 -16 -13z" />
<glyph unicode="&#xde;" d="M334 75v-54q0 -21 -21 -21h-252q-21 0 -21 21v54q0 21 21 21h51v493h-51q-21 0 -21 21v54q0 21 21 21h236q21 0 21 -21v-54q0 -21 -21 -21h-50v-52h68q117 0 168 -50q45 -44 45 -132q0 -104 -75 -158q-61 -45 -153 -45h-53v-56h66q21 0 21 -21zM247 248h41q50 0 75 16 q35 22 35 81q0 96 -110 96h-41v-193z" />
<glyph unicode="&#xdf;" horiz-adv-x="630" d="M95 93v402q0 229 224 229q84 0 137 -33q61 -39 61 -112q0 -43 -26 -79q-8 -11 -49 -52q-26 -26 -26 -45q0 -25 41 -58q75 -61 83 -69q53 -53 53 -128q0 -83 -50 -126q-45 -39 -124 -39q-42 0 -85 11q-48 11 -48 26q0 6 1 10l17 65q2 8 9 8q1 0 37.5 -15t67.5 -15 q60 0 60 60q0 39 -46 78l-85 68q-46 45 -46 98q0 51 48 102t48 83q0 62 -78 62q-64 0 -85 -38q-12 -22 -12 -80v-492q0 -14 -14 -14h-164q-14 0 -14 14v65q0 14 14 14h51z" />
<glyph unicode="&#xe0;" horiz-adv-x="500" d="M421 350v-173q0 -44 10 -84h43q14 0 14 -14v-65q0 -14 -14 -14h-125q-16 0 -22 15q-3 5 -8 28q-60 -60 -129 -60t-109.5 41.5t-40.5 112.5q0 109 101 148q55 21 160 21v31q0 40 -14.5 57t-56.5 17q-33 0 -78 -15t-46 -15q-7 0 -10 10l-20 61q-3 9 -3 12q0 17 58.5 32 t117.5 15q172 0 172 -161zM301 114v110q-55 0 -80 -7q-61 -17 -61 -73q0 -29 19 -48.5t47 -19.5q37 0 75 38zM348 610l-16 -32q-7 -14 -13 -14q-4 0 -14 4l-176 70q-16 6 -16 13q0 4 5 14l31 61q7 14 14 14q4 0 14 -6l163 -96q13 -8 13 -14q0 -4 -5 -14z" />
<glyph unicode="&#xe1;" horiz-adv-x="500" d="M421 350v-173q0 -44 10 -84h43q14 0 14 -14v-65q0 -14 -14 -14h-125q-16 0 -22 15q-3 5 -8 28q-60 -60 -129 -60t-109.5 41.5t-40.5 112.5q0 109 101 148q55 21 160 21v31q0 40 -14.5 57t-56.5 17q-33 0 -78 -15t-46 -15q-7 0 -10 10l-20 61q-3 9 -3 12q0 17 58.5 32 t117.5 15q172 0 172 -161zM301 114v110q-55 0 -80 -7q-61 -17 -61 -73q0 -29 19 -48.5t47 -19.5q37 0 75 38zM382 638l-176 -70q-10 -4 -14 -4q-6 0 -13 14l-16 32q-5 10 -5 14q0 6 13 14l163 96q10 6 14 6q7 0 14 -14l31 -61q5 -10 5 -14q0 -7 -16 -13z" />
<glyph unicode="&#xe2;" horiz-adv-x="500" d="M421 350v-173q0 -44 10 -84h43q14 0 14 -14v-65q0 -14 -14 -14h-125q-16 0 -22 15q-3 5 -8 28q-60 -60 -129 -60t-109.5 41.5t-40.5 112.5q0 109 101 148q55 21 160 21v31q0 40 -14.5 57t-56.5 17q-33 0 -78 -15t-46 -15q-7 0 -10 10l-20 61q-3 9 -3 12q0 17 58.5 32 t117.5 15q172 0 172 -161zM301 114v110q-55 0 -80 -7q-61 -17 -61 -73q0 -29 19 -48.5t47 -19.5q37 0 75 38zM384 609l-19 -32q-8 -13 -14 -13q-3 0 -14 6l-86 49l-86 -49q-11 -6 -14 -6q-6 0 -14 13l-19 32q-6 10 -6 14q0 5 12 14l113 89q10 8 14 8t14 -8l113 -89 q12 -9 12 -14q0 -4 -6 -14z" />
<glyph unicode="&#xe3;" horiz-adv-x="500" d="M421 350v-173q0 -44 10 -84h43q14 0 14 -14v-65q0 -14 -14 -14h-125q-16 0 -22 15q-3 5 -8 28q-60 -60 -129 -60t-109.5 41.5t-40.5 112.5q0 109 101 148q55 21 160 21v31q0 40 -14.5 57t-56.5 17q-33 0 -78 -15t-46 -15q-7 0 -10 10l-20 61q-3 9 -3 12q0 17 58.5 32 t117.5 15q172 0 172 -161zM301 114v110q-55 0 -80 -7q-61 -17 -61 -73q0 -29 19 -48.5t47 -19.5q37 0 75 38zM351 715l47 -24q7 -5 7 -9q0 -15 -25 -49q-35 -45 -80 -45q-26 0 -55 17.5t-41 17.5q-17 0 -29.5 -18t-15.5 -18q-4 0 -9 3l-47 24q-7 4 -7 8q0 15 24 48 q32 46 79 46q28 0 59.5 -17.5t42.5 -17.5q15 0 27 18t16 18q3 0 7 -2z" />
<glyph unicode="&#xe4;" horiz-adv-x="500" d="M421 350v-173q0 -44 10 -84h43q14 0 14 -14v-65q0 -14 -14 -14h-125q-16 0 -22 15q-3 5 -8 28q-60 -60 -129 -60t-109.5 41.5t-40.5 112.5q0 109 101 148q55 21 160 21v31q0 40 -14.5 57t-56.5 17q-33 0 -78 -15t-46 -15q-7 0 -10 10l-20 61q-3 9 -3 12q0 17 58.5 32 t117.5 15q172 0 172 -161zM301 114v110q-55 0 -80 -7q-61 -17 -61 -73q0 -29 19 -48.5t47 -19.5q37 0 75 38zM232 652q0 -28 -20 -48.5t-49 -20.5q-28 0 -48.5 20.5t-20.5 48.5q0 29 20 49t49 20t49 -20t20 -49zM409 652q0 -28 -20 -48.5t-49 -20.5q-28 0 -48.5 20.5 t-20.5 48.5q0 29 20 49t49 20t49 -20.5t20 -48.5z" />
<glyph unicode="&#xe5;" horiz-adv-x="500" d="M421 350v-173q0 -44 10 -84h43q14 0 14 -14v-65q0 -14 -14 -14h-125q-16 0 -22 15q-3 5 -8 28q-60 -60 -129 -60t-109.5 41.5t-40.5 112.5q0 109 101 148q55 21 160 21v31q0 40 -14.5 57t-56.5 17q-33 0 -78 -15t-46 -15q-7 0 -10 10l-20 61q-3 9 -3 12q0 17 58.5 32 t117.5 15q172 0 172 -161zM301 114v110q-55 0 -80 -7q-61 -17 -61 -73q0 -29 19 -48.5t47 -19.5q37 0 75 38zM356 668q0 -43 -31 -73.5t-74 -30.5t-73.5 30.5t-30.5 73.5q0 44 30.5 74.5t73.5 30.5t74 -30.5t31 -74.5zM251 626q18 0 30.5 12t12.5 30t-12.5 30.5t-30.5 12.5 q-17 0 -29.5 -12t-12.5 -31q0 -18 12.5 -30t29.5 -12z" />
<glyph unicode="&#xe6;" horiz-adv-x="741" d="M679 213h-260q0 -125 110 -125q38 0 77.5 16.5t40.5 16.5q8 0 11 -8l25 -60q3 -7 3 -11q0 -20 -55.5 -39.5t-114.5 -19.5q-115 0 -164 66q-22 -23 -60 -42q-50 -24 -99 -24q-69 0 -109.5 41.5t-40.5 112.5q0 109 100 148q54 21 156 21v31q0 40 -14.5 57t-56.5 17 q-30 0 -74 -15t-45 -15q-7 0 -10 10l-20 61q-3 9 -3 12q0 17 57 32t114 15q81 0 123 -65q62 65 141 65q191 0 191 -273q0 -25 -23 -25zM419 306h148q0 112 -66 112q-48 0 -68 -45q-9 -21 -14 -67zM299 114v110q-52 0 -77 -7q-59 -17 -59 -73q0 -30 17 -49t44 -19q37 0 75 38 z" />
<glyph unicode="&#xe7;" horiz-adv-x="426" d="M279 -17l-3 -35q25 0 45 -15q26 -20 26 -57q0 -40 -29 -64t-80 -24q-73 0 -73 18q0 2 2 12l7 34q2 8 6 8l14 -4q14 -3 28 -3q32 0 32 23t-43 23q-19 0 -19 11v7l7 73q-67 12 -110 71q-49 68 -49 176q0 128 62 201t174 73q42 0 80 -11q43 -13 43 -32v-135q0 -14 -14 -14 h-72q-14 0 -14 14v74q-11 4 -24 4q-100 0 -100 -167q0 -85 23.5 -123t79.5 -38q30 0 59 11l29 11q4 0 7 -5l26 -66q3 -8 3 -10q0 -14 -43.5 -27.5t-79.5 -13.5z" />
<glyph unicode="&#xe8;" horiz-adv-x="500" d="M442 213h-269q0 -125 110 -125q43 0 85 16l42 17q8 0 11 -8l25 -60q3 -7 3 -11q0 -20 -60 -39.5t-119 -19.5q-224 0 -224 259q0 120 59.5 194.5t159.5 74.5q200 0 200 -273q0 -25 -23 -25zM173 306h157q0 112 -72 112q-50 0 -71 -45q-9 -21 -14 -67zM348 610l-16 -32 q-7 -14 -13 -14q-4 0 -14 4l-176 70q-16 6 -16 13q0 4 5 14l31 61q7 14 14 14q4 0 14 -6l163 -96q13 -8 13 -14q0 -4 -5 -14z" />
<glyph unicode="&#xe9;" horiz-adv-x="500" d="M442 213h-269q0 -125 110 -125q43 0 85 16l42 17q8 0 11 -8l25 -60q3 -7 3 -11q0 -20 -60 -39.5t-119 -19.5q-224 0 -224 259q0 120 59.5 194.5t159.5 74.5q200 0 200 -273q0 -25 -23 -25zM173 306h157q0 112 -72 112q-50 0 -71 -45q-9 -21 -14 -67zM382 638l-176 -70 q-10 -4 -14 -4q-6 0 -13 14l-16 32q-5 10 -5 14q0 6 13 14l163 96q10 6 14 6q7 0 14 -14l31 -61q5 -10 5 -14q0 -7 -16 -13z" />
<glyph unicode="&#xea;" horiz-adv-x="500" d="M442 213h-269q0 -125 110 -125q43 0 85 16l42 17q8 0 11 -8l25 -60q3 -7 3 -11q0 -20 -60 -39.5t-119 -19.5q-224 0 -224 259q0 120 59.5 194.5t159.5 74.5q200 0 200 -273q0 -25 -23 -25zM173 306h157q0 112 -72 112q-50 0 -71 -45q-9 -21 -14 -67zM384 609l-19 -32 q-8 -13 -14 -13q-3 0 -14 6l-86 49l-86 -49q-11 -6 -14 -6q-6 0 -14 13l-19 32q-6 10 -6 14q0 5 12 14l113 89q10 8 14 8t14 -8l113 -89q12 -9 12 -14q0 -4 -6 -14z" />
<glyph unicode="&#xeb;" horiz-adv-x="500" d="M442 213h-269q0 -125 110 -125q43 0 85 16l42 17q8 0 11 -8l25 -60q3 -7 3 -11q0 -20 -60 -39.5t-119 -19.5q-224 0 -224 259q0 120 59.5 194.5t159.5 74.5q200 0 200 -273q0 -25 -23 -25zM173 306h157q0 112 -72 112q-50 0 -71 -45q-9 -21 -14 -67zM232 652 q0 -28 -20 -48.5t-49 -20.5q-28 0 -48.5 20.5t-20.5 48.5q0 29 20 49t49 20t49 -20t20 -49zM409 652q0 -28 -20 -48.5t-49 -20.5q-28 0 -48.5 20.5t-20.5 48.5q0 29 20 49t49 20t49 -20.5t20 -48.5z" />
<glyph unicode="&#xec;" horiz-adv-x="333" d="M313 79v-65q0 -14 -14 -14h-255q-14 0 -14 14v65q0 14 14 14h64v308h-65q-14 0 -14 14v65q0 14 14 14h178q14 0 14 -14v-387h64q14 0 14 -14zM254 610l-16 -32q-7 -14 -13 -14q-4 0 -14 4l-176 70q-16 6 -16 13q0 4 5 14l31 61q7 14 14 14q4 0 14 -6l163 -96 q13 -8 13 -14q0 -4 -5 -14z" />
<glyph unicode="&#xed;" horiz-adv-x="333" d="M313 79v-65q0 -14 -14 -14h-255q-14 0 -14 14v65q0 14 14 14h64v308h-65q-14 0 -14 14v65q0 14 14 14h178q14 0 14 -14v-387h64q14 0 14 -14zM298 638l-176 -70q-10 -4 -14 -4q-6 0 -13 14l-16 32q-5 10 -5 14q0 6 13 14l163 96q10 6 14 6q7 0 14 -14l31 -61q5 -10 5 -14 q0 -7 -16 -13z" />
<glyph unicode="&#xee;" horiz-adv-x="333" d="M313 79v-65q0 -14 -14 -14h-255q-14 0 -14 14v65q0 14 14 14h64v308h-65q-14 0 -14 14v65q0 14 14 14h178q14 0 14 -14v-387h64q14 0 14 -14zM300 609l-19 -32q-8 -13 -14 -13q-3 0 -14 6l-86 49l-86 -49q-11 -6 -14 -6q-6 0 -14 13l-19 32q-6 10 -6 14q0 5 12 14l113 89 q10 8 14 8t14 -8l113 -89q12 -9 12 -14q0 -4 -6 -14z" />
<glyph unicode="&#xef;" horiz-adv-x="333" d="M313 79v-65q0 -14 -14 -14h-255q-14 0 -14 14v65q0 14 14 14h64v308h-65q-14 0 -14 14v65q0 14 14 14h178q14 0 14 -14v-387h64q14 0 14 -14zM148 652q0 -28 -20 -48.5t-49 -20.5q-28 0 -48.5 20.5t-20.5 48.5q0 29 20 49t49 20t49 -20t20 -49zM325 652q0 -28 -20 -48.5 t-49 -20.5q-28 0 -48.5 20.5t-20.5 48.5q0 29 20 49t49 20t49 -20.5t20 -48.5z" />
<glyph unicode="&#xf0;" horiz-adv-x="519" d="M317 689l92 43l9 3q4 0 8 -9l15 -33q4 -9 4 -11q0 -5 -11 -10l-84 -39q126 -222 126 -390q0 -108 -51 -179q-58 -81 -165 -81t-164 74q-54 69 -54 191q0 118 60 193q58 70 141 70q34 0 61 -18l2 2q-22 51 -48 95l-91 -43q-3 -2 -8 -2t-9 8l-17 37q-3 7 -3 9q0 4 8 8 l88 41q-10 20 -31 47q-17 22 -17 26q0 10 13 12l59 7q1 0 6 1h7q14 0 54 -52zM260 83q52 0 72 46q17 38 17 118q0 79 -17 117q-20 47 -71 47q-49 0 -69 -47q-15 -37 -15 -118q0 -79 15 -116q19 -47 68 -47z" />
<glyph unicode="&#xf1;" horiz-adv-x="593" d="M569 79v-65q0 -14 -14 -14h-164q-14 0 -14 14v308q0 84 -56 84q-42 0 -86 -41v-272h51q14 0 14 -14v-65q0 -14 -14 -14h-229q-14 0 -14 14v65q0 14 14 14h51v223q0 50 -10 85h-48q-14 0 -14 14v65q0 14 14 14h139q15 0 21 -17.5t11 -34.5q38 33 58 44q44 25 95 25 q130 0 130 -158v-260h51q14 0 14 -14zM397 715l47 -24q7 -5 7 -9q0 -15 -25 -49q-35 -45 -80 -45q-26 0 -55 17.5t-41 17.5q-17 0 -29.5 -18t-15.5 -18q-4 0 -9 3l-47 24q-7 4 -7 8q0 15 24 48q32 46 79 46q28 0 59.5 -17.5t42.5 -17.5q15 0 27 18t16 18q3 0 7 -2z" />
<glyph unicode="&#xf2;" horiz-adv-x="519" d="M259 83q48 0 67 47q15 36 15 117q0 79 -15 117q-19 47 -67 47t-67 -47q-15 -38 -15 -117q0 -80 15 -117q19 -47 67 -47zM476 247q0 -121 -58 -192.5t-159 -71.5t-159 71.5t-58 192.5t58 192.5t159 71.5q100 0 158.5 -71.5t58.5 -192.5zM357 610l-16 -32q-7 -14 -13 -14 q-4 0 -14 4l-176 70q-16 6 -16 13q0 4 5 14l31 61q7 14 14 14q4 0 14 -6l163 -96q13 -8 13 -14q0 -4 -5 -14z" />
<glyph unicode="&#xf3;" horiz-adv-x="519" d="M259 83q48 0 67 47q15 36 15 117q0 79 -15 117q-19 47 -67 47t-67 -47q-15 -38 -15 -117q0 -80 15 -117q19 -47 67 -47zM476 247q0 -121 -58 -192.5t-159 -71.5t-159 71.5t-58 192.5t58 192.5t159 71.5q100 0 158.5 -71.5t58.5 -192.5zM391 638l-176 -70q-10 -4 -14 -4 q-6 0 -13 14l-16 32q-5 10 -5 14q0 6 13 14l163 96q10 6 14 6q7 0 14 -14l31 -61q5 -10 5 -14q0 -7 -16 -13z" />
<glyph unicode="&#xf4;" horiz-adv-x="519" d="M259 83q48 0 67 47q15 36 15 117q0 79 -15 117q-19 47 -67 47t-67 -47q-15 -38 -15 -117q0 -80 15 -117q19 -47 67 -47zM476 247q0 -121 -58 -192.5t-159 -71.5t-159 71.5t-58 192.5t58 192.5t159 71.5q100 0 158.5 -71.5t58.5 -192.5zM393 609l-19 -32q-8 -13 -14 -13 q-3 0 -14 6l-86 49l-86 -49q-11 -6 -14 -6q-6 0 -14 13l-19 32q-6 10 -6 14q0 5 12 14l113 89q10 8 14 8t14 -8l113 -89q12 -9 12 -14q0 -4 -6 -14z" />
<glyph unicode="&#xf5;" horiz-adv-x="519" d="M259 83q48 0 67 47q15 36 15 117q0 79 -15 117q-19 47 -67 47t-67 -47q-15 -38 -15 -117q0 -80 15 -117q19 -47 67 -47zM476 247q0 -121 -58 -192.5t-159 -71.5t-159 71.5t-58 192.5t58 192.5t159 71.5q100 0 158.5 -71.5t58.5 -192.5zM360 715l47 -24q7 -5 7 -9 q0 -15 -25 -49q-35 -45 -80 -45q-26 0 -55 17.5t-41 17.5q-17 0 -29.5 -18t-15.5 -18q-4 0 -9 3l-47 24q-7 4 -7 8q0 15 24 48q32 46 79 46q28 0 59.5 -17.5t42.5 -17.5q15 0 27 18t16 18q3 0 7 -2z" />
<glyph unicode="&#xf6;" horiz-adv-x="519" d="M259 83q48 0 67 47q15 36 15 117q0 79 -15 117q-19 47 -67 47t-67 -47q-15 -38 -15 -117q0 -80 15 -117q19 -47 67 -47zM476 247q0 -121 -58 -192.5t-159 -71.5t-159 71.5t-58 192.5t58 192.5t159 71.5q100 0 158.5 -71.5t58.5 -192.5zM241 652q0 -28 -20 -48.5 t-49 -20.5q-28 0 -48.5 20.5t-20.5 48.5q0 29 20 49t49 20t49 -20t20 -49zM418 652q0 -28 -20 -48.5t-49 -20.5q-28 0 -48.5 20.5t-20.5 48.5q0 29 20 49t49 20t49 -20.5t20 -48.5z" />
<glyph unicode="&#xf7;" d="M505 290v-66q0 -12 -4 -14.5t-13 -2.5h-420q-12 0 -14.5 4t-2.5 13v66q0 17 17 17h420q12 0 14.5 -4t2.5 -13zM349 85q0 -30 -21 -50.5t-50 -20.5t-50 20.5t-21 50.5t20.5 50.5t50.5 20.5q29 0 50 -20.5t21 -50.5zM349 429q0 -30 -20.5 -50.5t-50.5 -20.5q-29 0 -50 20.5 t-21 50.5t20.5 50.5t50.5 20.5q29 0 50 -21t21 -50z" />
<glyph unicode="&#xf8;" horiz-adv-x="500" d="M431 503l-30 -55q66 -66 66 -201q0 -121 -58 -192.5t-159 -71.5q-56 0 -100 23l-28 -49q-6 -11 -11 -11t-12 4l-25 14q-11 6 -11 12q0 5 4 12l31 56q-65 68 -65 203q0 121 58 192.5t159 71.5q68 0 100 -23l26 45q6 11 11 11t12 -4l25 -14q12 -7 12 -12q0 -3 -5 -11z M335 351l-132 -253q18 -15 47 -15q58 0 80 47q17 36 17 117q0 68 -12 104zM164 139l133 255q-20 17 -47 17q-57 0 -79 -47q-18 -37 -18 -117q0 -67 11 -108z" />
<glyph unicode="&#xf9;" horiz-adv-x="574" d="M549 79v-65q0 -14 -14 -14h-133q-15 0 -21 15.5t-11 31.5q-42 -36 -51 -42q-39 -22 -102 -22q-130 0 -130 158v260h-51q-14 0 -14 14v65q0 14 14 14h164q14 0 14 -14v-308q0 -89 56 -89q42 0 86 41v277h-51q-14 0 -14 14v65q0 14 14 14h164q14 0 14 -14v-302 q0 -50 10 -85h42q14 0 14 -14zM375 610l-16 -32q-7 -14 -13 -14q-4 0 -14 4l-176 70q-16 6 -16 13q0 4 5 14l31 61q7 14 14 14q4 0 14 -6l163 -96q13 -8 13 -14q0 -4 -5 -14z" />
<glyph unicode="&#xfa;" horiz-adv-x="574" d="M549 79v-65q0 -14 -14 -14h-133q-15 0 -21 15.5t-11 31.5q-42 -36 -51 -42q-39 -22 -102 -22q-130 0 -130 158v260h-51q-14 0 -14 14v65q0 14 14 14h164q14 0 14 -14v-308q0 -89 56 -89q42 0 86 41v277h-51q-14 0 -14 14v65q0 14 14 14h164q14 0 14 -14v-302 q0 -50 10 -85h42q14 0 14 -14zM419 638l-176 -70q-10 -4 -14 -4q-6 0 -13 14l-16 32q-5 10 -5 14q0 6 13 14l163 96q10 6 14 6q7 0 14 -14l31 -61q5 -10 5 -14q0 -7 -16 -13z" />
<glyph unicode="&#xfb;" horiz-adv-x="574" d="M549 79v-65q0 -14 -14 -14h-133q-15 0 -21 15.5t-11 31.5q-42 -36 -51 -42q-39 -22 -102 -22q-130 0 -130 158v260h-51q-14 0 -14 14v65q0 14 14 14h164q14 0 14 -14v-308q0 -89 56 -89q42 0 86 41v277h-51q-14 0 -14 14v65q0 14 14 14h164q14 0 14 -14v-302 q0 -50 10 -85h42q14 0 14 -14zM421 609l-19 -32q-8 -13 -14 -13q-3 0 -14 6l-86 49l-86 -49q-11 -6 -14 -6q-6 0 -14 13l-19 32q-6 10 -6 14q0 5 12 14l113 89q10 8 14 8t14 -8l113 -89q12 -9 12 -14q0 -4 -6 -14z" />
<glyph unicode="&#xfc;" horiz-adv-x="574" d="M549 79v-65q0 -14 -14 -14h-133q-15 0 -21 15.5t-11 31.5q-42 -36 -51 -42q-39 -22 -102 -22q-130 0 -130 158v260h-51q-14 0 -14 14v65q0 14 14 14h164q14 0 14 -14v-308q0 -89 56 -89q42 0 86 41v277h-51q-14 0 -14 14v65q0 14 14 14h164q14 0 14 -14v-302 q0 -50 10 -85h42q14 0 14 -14zM269 652q0 -28 -20 -48.5t-49 -20.5q-28 0 -48.5 20.5t-20.5 48.5q0 29 20 49t49 20t49 -20t20 -49zM446 652q0 -28 -20 -48.5t-49 -20.5q-28 0 -48.5 20.5t-20.5 48.5q0 29 20 49t49 20t49 -20.5t20 -48.5z" />
<glyph unicode="&#xfd;" horiz-adv-x="519" d="M466 401l-81 -297q-22 -83 -67 -222q-38 -94 -147 -94q-41 0 -88.5 16t-47.5 30q0 3 4 12l30 65q3 7 9 7q1 0 30 -12.5t55 -12.5q36 0 55 21q14 15 25 53l10 33h-42q-14 0 -18 13l-134 388h-32q-14 0 -14 14v65q0 14 14 14h126q14 0 18 -15l64 -238q22 -81 38 -173h2 q8 63 33 173l54 238q3 15 18 15h121q14 0 14 -14v-65q0 -14 -14 -14h-35zM411 638l-176 -70q-10 -4 -14 -4q-6 0 -13 14l-16 32q-5 10 -5 14q0 6 13 14l163 96q10 6 14 6q7 0 14 -14l31 -61q5 -10 5 -14q0 -7 -16 -13z" />
<glyph unicode="&#xfe;" horiz-adv-x="537" d="M197 374v-272q34 -19 73 -19q57 0 78 40q20 36 20 128q0 81 -19 119q-22 41 -72 41q-40 0 -80 -37zM262 -123v-65q0 -14 -14 -14h-229q-14 0 -14 14v65q0 14 14 14h51v646q0 76 -10 87h-47q-14 0 -14 14v65q0 14 14 14h170q14 0 14 -14v-233q43 41 115 41q183 0 183 -255 q0 -273 -194 -273q-54 0 -104 26v-118h51q14 0 14 -14z" />
<glyph unicode="&#xff;" horiz-adv-x="519" d="M466 401l-81 -297q-22 -83 -67 -222q-38 -94 -147 -94q-41 0 -88.5 16t-47.5 30q0 3 4 12l30 65q3 7 9 7q1 0 30 -12.5t55 -12.5q36 0 55 21q14 15 25 53l10 33h-42q-14 0 -18 13l-134 388h-32q-14 0 -14 14v65q0 14 14 14h126q14 0 18 -15l64 -238q22 -81 38 -173h2 q8 63 33 173l54 238q3 15 18 15h121q14 0 14 -14v-65q0 -14 -14 -14h-35zM241 652q0 -28 -20 -48.5t-49 -20.5q-28 0 -48.5 20.5t-20.5 48.5q0 29 20 49t49 20t49 -20t20 -49zM418 652q0 -28 -20 -48.5t-49 -20.5q-28 0 -48.5 20.5t-20.5 48.5q0 29 20 49t49 20t49 -20.5 t20 -48.5z" />
<glyph unicode="&#x131;" horiz-adv-x="333" d="M313 79v-65q0 -14 -14 -14h-255q-14 0 -14 14v65q0 14 14 14h64v308h-65q-14 0 -14 14v65q0 14 14 14h178q14 0 14 -14v-387h64q14 0 14 -14z" />
<glyph unicode="&#x152;" horiz-adv-x="815" d="M763 178v-157q0 -21 -20 -21h-336q-74 -17 -111 -17q-119 0 -184 90.5t-65 268.5q0 179 67 271q64 89 182 89q68 0 100 -17h346q21 0 21 -17v-152q0 -21 -21 -21h-66q-21 0 -21 21v61h-127v-165h170q14 0 17.5 -3.5t3.5 -17.5v-66q0 -21 -21 -21h-170v-196h127v70 q0 13 3.5 17t17.5 4h66q14 0 17.5 -3.5t3.5 -17.5zM393 111v463q-44 23 -87 23q-66 0 -94 -69q-23 -59 -23 -186q0 -254 117 -254q41 0 63 9q2 0 24 14z" />
<glyph unicode="&#x153;" horiz-adv-x="778" d="M449 306h158q0 112 -72 112q-86 0 -86 -112zM341 247v11q0 153 -82 153q-48 0 -67 -47q-15 -38 -15 -117q0 -80 15 -117q19 -47 67 -47q79 0 82 164zM719 213h-270q0 -125 111 -125q43 0 85 16l42 17q8 0 11 -8l25 -60q3 -7 3 -11q0 -20 -60 -39.5t-119 -19.5 q-108 0 -146 67q-23 -33 -48 -47q-35 -20 -94 -20q-101 0 -159 71.5t-58 192.5t58 192.5t159 71.5q98 0 144 -61q33 30 52 40q38 21 87 21q200 0 200 -273q0 -25 -23 -25z" />
<glyph unicode="&#x178;" d="M439 75v-54q0 -21 -21 -21h-271q-21 0 -21 21v54q0 21 21 21h68v185l-159 308h-26q-12 0 -14.5 4t-2.5 13v62q0 12 4 14.5t13 2.5h114q15 0 22 -14l78 -161q30 -61 40 -114h2q16 65 40 114l78 161q7 14 22 14h109q12 0 14.5 -4t2.5 -13v-62q0 -12 -4 -14.5t-13 -2.5h-32 l-153 -308v-185h68q21 0 21 -21zM260 843q0 -28 -20 -48.5t-49 -20.5q-28 0 -48.5 20.5t-20.5 48.5q0 29 20 49t49 20t49 -20t20 -49zM437 843q0 -28 -20 -48.5t-49 -20.5q-28 0 -48.5 20.5t-20.5 48.5q0 29 20 49t49 20t49 -20.5t20 -48.5z" />
<glyph unicode="&#x2c6;" horiz-adv-x="335" d="M301 609l-19 -32q-8 -13 -14 -13q-3 0 -14 6l-86 49l-86 -49q-11 -6 -14 -6q-6 0 -14 13l-19 32q-6 10 -6 14q0 5 12 14l113 89q10 8 14 8t14 -8l113 -89q12 -9 12 -14q0 -4 -6 -14z" />
<glyph unicode="&#x2da;" horiz-adv-x="335" d="M273 668q0 -43 -31 -73.5t-74 -30.5t-73.5 30.5t-30.5 73.5q0 44 30.5 74.5t73.5 30.5t74 -30.5t31 -74.5zM168 626q18 0 30.5 12t12.5 30t-12.5 30.5t-30.5 12.5q-17 0 -29.5 -12t-12.5 -31q0 -18 12.5 -30t29.5 -12z" />
<glyph unicode="&#x2dc;" horiz-adv-x="335" d="M268 715l47 -24q7 -5 7 -9q0 -15 -25 -49q-35 -45 -80 -45q-26 0 -55 17.5t-41 17.5q-17 0 -29.5 -18t-15.5 -18q-4 0 -9 3l-47 24q-7 4 -7 8q0 15 24 48q32 46 79 46q28 0 59.5 -17.5t42.5 -17.5q15 0 27 18t16 18q3 0 7 -2z" />
<glyph unicode="&#x2000;" horiz-adv-x="482" />
<glyph unicode="&#x2001;" horiz-adv-x="964" />
<glyph unicode="&#x2002;" horiz-adv-x="482" />
<glyph unicode="&#x2003;" horiz-adv-x="964" />
<glyph unicode="&#x2004;" horiz-adv-x="321" />
<glyph unicode="&#x2005;" horiz-adv-x="241" />
<glyph unicode="&#x2006;" horiz-adv-x="160" />
<glyph unicode="&#x2007;" horiz-adv-x="160" />
<glyph unicode="&#x2008;" horiz-adv-x="120" />
<glyph unicode="&#x2009;" horiz-adv-x="192" />
<glyph unicode="&#x200a;" horiz-adv-x="53" />
<glyph unicode="&#x2010;" horiz-adv-x="370" d="M328 292v-73q0 -13 -3.5 -17t-17.5 -4h-244q-13 0 -17 4t-4 17v73q0 14 4 17.5t17 3.5h244q14 0 17.5 -3.5t3.5 -17.5z" />
<glyph unicode="&#x2011;" horiz-adv-x="370" d="M328 292v-73q0 -13 -3.5 -17t-17.5 -4h-244q-13 0 -17 4t-4 17v73q0 14 4 17.5t17 3.5h244q14 0 17.5 -3.5t3.5 -17.5z" />
<glyph unicode="&#x2013;" d="M515 292v-73q0 -13 -3.5 -17t-17.5 -4h-431q-13 0 -17 4t-4 17v73q0 14 4 17.5t17 3.5h431q14 0 17.5 -3.5t3.5 -17.5z" />
<glyph unicode="&#x2014;" horiz-adv-x="1000" d="M958 292v-73q0 -13 -3.5 -17t-17.5 -4h-874q-13 0 -17 4t-4 17v73q0 14 4 17.5t17 3.5h874q14 0 17.5 -3.5t3.5 -17.5z" />
<glyph unicode="&#x2018;" horiz-adv-x="222" d="M208 675l-62 -204q-5 -17 -22 -17h-97q-20 0 -20 11q0 8 5 15l119 223q7 14 14 14q3 0 12 -3l38 -13q16 -5 16 -13q0 -3 -3 -13z" />
<glyph unicode="&#x2019;" horiz-adv-x="222" d="M210 691l-119 -223q-7 -14 -14 -14q-3 0 -12 3l-38 13q-16 5 -16 13q0 3 3 13l62 204q5 17 22 17h97q20 0 20 -11q0 -7 -5 -15z" />
<glyph unicode="&#x201a;" horiz-adv-x="222" d="M197 99l-119 -223q-7 -14 -14 -14q-3 0 -12 3l-38 13q-16 5 -16 13q0 3 3 13l62 204q5 17 22 17h97q20 0 20 -11q0 -7 -5 -15z" />
<glyph unicode="&#x201c;" horiz-adv-x="500" d="M248 675l-62 -204q-5 -17 -22 -17h-97q-20 0 -20 11q0 8 5 15l119 223q7 14 14 14q3 0 12 -3l38 -13q16 -5 16 -13q0 -3 -3 -13zM450 675l-62 -204q-5 -17 -22 -17h-97q-20 0 -20 11q0 8 5 15l119 223q7 14 14 14q3 0 12 -3l38 -13q16 -5 16 -13q0 -3 -3 -13z" />
<glyph unicode="&#x201d;" horiz-adv-x="500" d="M448 691l-119 -223q-7 -14 -14 -14q-3 0 -12 3l-38 13q-16 5 -16 13q0 3 3 13l62 204q5 17 22 17h97q20 0 20 -11q0 -7 -5 -15zM246 691l-119 -223q-7 -14 -14 -14q-3 0 -12 3l-38 13q-16 5 -16 13q0 3 3 13l62 204q5 17 22 17h97q20 0 20 -11q0 -7 -5 -15z" />
<glyph unicode="&#x201e;" horiz-adv-x="500" d="M452 99l-119 -223q-7 -14 -14 -14q-3 0 -12 3l-38 13q-16 5 -16 13q0 3 3 13l62 204q5 17 22 17h97q20 0 20 -11q0 -7 -5 -15zM250 99l-119 -223q-7 -14 -14 -14q-3 0 -12 3l-38 13q-16 5 -16 13q0 3 3 13l62 204q5 17 22 17h97q20 0 20 -11q0 -7 -5 -15z" />
<glyph unicode="&#x2022;" horiz-adv-x="500" d="M431 360q0 -74 -53.5 -127t-127.5 -53q-75 0 -128 53t-53 127q0 75 53 128.5t128 53.5q74 0 127.5 -53.5t53.5 -128.5z" />
<glyph unicode="&#x2026;" horiz-adv-x="1000" d="M257 90q0 -37 -26.5 -63.5t-63.5 -26.5t-63.5 26.5t-26.5 63.5t26.5 63.5t63.5 26.5t63.5 -26.5t26.5 -63.5zM923 90q0 -37 -26.5 -63.5t-63.5 -26.5t-63.5 26.5t-26.5 63.5t26.5 63.5t63.5 26.5t63.5 -26.5t26.5 -63.5zM590 90q0 -37 -26.5 -63.5t-63.5 -26.5 t-63.5 26.5t-26.5 63.5t26.5 63.5t63.5 26.5t63.5 -26.5t26.5 -63.5z" />
<glyph unicode="&#x202f;" horiz-adv-x="192" />
<glyph unicode="&#x2039;" horiz-adv-x="352" d="M293 37l-50 -31q-12 -6 -14 -6q-5 0 -14 12l-169 224q-6 8 -6 14t6 14l169 219q8 11 14 11q2 0 14 -6l50 -31q13 -8 13 -15q0 -4 -7 -14l-124 -184l124 -178q6 -9 6 -14q0 -8 -12 -15z" />
<glyph unicode="&#x203a;" horiz-adv-x="352" d="M306 236l-169 -224q-9 -12 -14 -12q-2 0 -14 6l-50 31q-12 7 -12 15q0 5 6 14l124 178l-124 184q-7 10 -7 14q0 7 13 15l50 31q12 6 14 6q6 0 14 -11l169 -219q6 -8 6 -14t-6 -14z" />
<glyph unicode="&#x205f;" horiz-adv-x="241" />
<glyph unicode="&#x2122;" horiz-adv-x="704" d="M251 428v-18h-153v18q31 3 39 8q14 9 14 39v191q-39 -7 -54 -26q-6 -9 -24 -57h-18l5 102h234l5 -102h-18q-18 48 -24 57q-15 19 -54 26v-191q0 -30 11 -38q6 -6 37 -9zM647 428v-18h-124v18q21 4 28 11.5t7 35.5v184h-2l-84 -249h-16l-73 240h-2v-175q0 -28 7 -37 q4 -6 22 -10v-18h-98v18q29 5 37.5 12t8.5 35v156q0 24 -4.5 29t-29.5 7v18h100l55 -181h2l63 181h108v-18q-27 -3 -33 -8q-9 -7 -9 -34v-150q0 -30 8 -38q5 -6 29 -9z" />
</font>
</defs>
</svg>
